<svg version="1.1" id="Layer_1" xmlns="http://www.w3.org/2000/svg" x="0" y="0" viewBox="0 0 612 293.3" xml:space="preserve">
  <style>
    .st3{fill:#e0e1e3}.st4{fill:#3a424d}.st5{fill:#dadbdd}.st9{fill:#c0bebf}.st10{fill:#d64141}
  </style>
  <path d="M389.1 214.8c-.1-1.8.2-3.6-.2-5.4-.4-2.1-1.6-3.3-3.7-3.8l-20.6-4.7c-1.7-.4-3.2-.1-4.4 1.3-.7-.3-.6-.9-.6-1.4-.1-2.7.2-5.3.2-8-.1-8.4-.3-16.9-.2-25.3 0-3.1-2.5-5.5-5.6-5.5h-36.5c-.6 0-1.2.1-1.8-.3-.4-.5-.3-1.1-.3-1.6.1-6-.2-11.9-.3-17.8l-.5-22.3c-.1-3.6 0-7.2-.2-10.8-.3-7.6-.3-15.2-.5-22.7-.1-3.6 0-7.1-.2-10.7-.3-7.5-.3-15-.5-22.5-.1-3.6.1-7.3-.2-10.9-.4-4.5.1-9.1-.4-13.6a10 10 0 01.8-5.4c1.7-3.3 4.1-4.5 8-3.7l28.1 5.3a5093 5093 0 0038.1 7.1l38.3 7.2 40.7 7.6 39.5 7.4 36.9 6.9 21.2 4 3 .4c3.5.7 5.7 3.8 6 7.9.6 8.4 1.6 16.8 2.4 25.2l2.4 24 2.6 26.2 1.9 19.1 2.2 21.8 2.1 21.7.9 9.6c-.3.4-.7.3-1.2.3l-13.2-.4c-6-.2-12-.2-17.9-.6-2.6-.2-5.2-.1-7.8-.2l-11.9-.3c-5.9-.2-11.8-.2-17.7-.6-2.6-.2-5.2-.1-7.8-.2l-11.7-.3c-6-.2-12-.2-18.1-.6-2.6-.2-5.2-.1-7.7-.2l-11.5-.3c-6.1-.2-12.3-.3-18.4-.6-2.6-.2-5.3-.1-8-.2l-12.2-.3c-5.8-.2-11.7-.3-17.5-.6-4-.2-7.9-.4-11.9-.3-1.2 0-2.3-.2-3.5-.3l-.6-.6z" fill="#39414c"/>
  <path d="M277.1 277.8h-148c-1.7 0-1.8-.1-1.4-1.7l8.8-44.2 9-45 5.5-27.5c.7-3.5 2.9-5.4 6.4-5.9l29.3-4 25.8-3.5 24.1-3.3 25.7-3.5 24.3-3.3 15.4-2.1c1.6-.2 3 .1 4.2 1.3 1 1.4 1.3 2.9 1 4.5l-3.4 20.5c-.3 1.5-.4 1.7-2 1.7h-18.7c-3 0-5.7 2.7-5.7 5.7v108.3c0 .8.2 1.5-.3 2z" fill="#3a414c"/>
  <path d="M389.1 214.8l14.1.5 27.7.9 19.8.6 30.3.9 22.3.7 30.3.9 22.3.7 30.3.9 1.8.1c.5 4.2 1 8.4 1.3 12.5.2 2.4.7 4.9.5 7.3-.1 1.7-.6 3.4-2.1 4.4-1.4.9-3 1.5-4.6 1.7-.6.1-1.2.4-1.9.2-.4-.5-1-.3-1.5-.3h-32.3c-22.7 0-45.4.2-68-.1-29.4-.3-58.7 0-88.1-.2-.7 0-1.5.2-2.2-.4v-31.3z" fill="#e1e2e4"/>
  <path class="st3" d="M389.1 246.3h76.7c26.8.2 53.6.1 80.4.2H580c.5 0 1.2-.3 1.2.7H460.6c-.5 0-1-.2-1.4.2s-.9.4-1.4.3c-1.3-.2-2.6-.2-4-.2h-45c-2.6 0-2.3-.1-3.1 2.3-.3.9-.6 1.8-.7 2.7-.1.6.1.9.7 1h7.4c13.3-.1 26.7.4 40 .2 1.4 0 2.8.3 4.2.2.3 0 .7.1.9.3-.3 2.2-.2 4.4 0 6.5.3 3.1.8 6.1 2.6 8.8a8.7 8.7 0 006 3.8l10.7 1.9 12.9 2.2 11.6 1.9c1.7.3 3.4.5 5.1 1 1.4.4 1.6.9 1 2.3-1.6 1.3-3.5 1.1-5.3 1.1l-14.2.3-19.5.4-20.1.5-12.7.2c-5.5.2-10.9-.5-16.2-2.1l-14.1-4.4c-1.5-.5-2.7-1.3-4-2.1-1.8-1.8-2.2-4.2-2.1-6.6.1-2.7.3-5.5.8-8.2.8-4.4 1.7-8.8 3-13.1.5-1.7.4-1.7-1.3-1.7h-12.3c-.7.3-1.2.2-1-.6z"/>
  <path class="st4" d="M360.4 242.2v-32.6c0-1 .3-1.2 1.2-1l22.3 4.5 3.7.7c.6.1.9.4.8 1.1v60.3c0 1.1-.3 1.3-1.3 1.3l-25.9-.5c-1 0-.8-.5-.8-1.1v-32.7z"/>
  <path class="st5" d="M277.1 277.8V168c0-3.7 2.8-6.6 6.5-6.5 6.2.2 12.4 0 18.5.1.8 0 1.1-.2 1.2-1l3.5-21c.3-1.5.1-3-.6-4.4 1.5 1.4 1.6 3.3 1.3 5.1l-2.4 14.5-1 5.9c-.2.9.2.9.8.9h9.1c.6-.5 1.3-.4 1.9 0h37.9c3.8 0 6.2 2.4 6.2 6.3v6.9l-.1 12.4c-.1 3 .1 6.1 0 9.3-.1 1.6 0 3 .1 4.7 0 .4-.2.8.2 1l-.2.4c-.4.3-.8.5-1-.2l-.1-2v-32c0-1-.1-2.1-.6-3-.8-1.5-2-2.4-3.8-2.6l-1.6-.1h-69.3c-1.7 0-3.1.3-4.3 1.6-.7.8-1.2 1.8-1.2 2.9v111c0 1.7.3 3.2 1.7 4.4.8.7 1.8 1.2 2.9 1.2h69.8c2.1 0 4-.1 5.5-1.8l.4-.2c.6-.1.8.2.7.8-1 .4-1.6 1.2-2.2 2-.7.6-1.6.5-2.4.5h-71.7c-.9 0-1.8.1-2.6-.5-.2-.9-.8-1.1-1.6-1.1-1.5 0-3 .4-4.5.7-.3.3-.7.5-1.2.6-3.2.3-6.3.7-9.5.7H30.5c-2.3 0-4.6-.2-6.9-.6H23c-1.2-.8-2.7-.7-4-1.1-1.4-.4-2.7-.8-4.1-1.6.6-.4 1.1-.3 1.6-.3H269c1.6 0 1.6-.1 1.6-1.6 0-1.6 0-1.6 1.7-1.6h4.1c.4-.1.7-.2.7-.9z"/>
  <path d="M458.2 254.4c-9.3-.4-18.6 0-27.8-.3-8.2-.3-16.4 0-24.7-.2-1.5 0-1.6-.1-1.2-1.4l1.2-4.5c.2-.9.8-.9 1.5-.9H454c1.7 0 3.3.2 5 .3l-.8 7z" fill="#caccce"/>
  <path class="st3" d="M315.8 161.6h-1.9l-.3-18.3c-.1-4.2.1-8.4-.2-12.6-.3-4.5.1-8.9-.2-13.4-.2-3.8 0-7.5-.2-11.2-.3-4.9 0-9.8-.3-14.6-.2-4.3.1-8.6-.2-12.9-.3-4.5.1-8.9-.2-13.4-.3-4.3.1-8.6-.2-12.8-.3-4.5 0-8.9-.2-13.4-.2-2.9-.2-5.8-.1-8.6.1-2.4.4-4.9 1.8-7-.8 2.9-.3 5.9-.3 8.8l.3 18.3.7 34.3.5 20.8.7 34.7.3 21.3z"/>
  <path d="M22.9 284.7c.4-.4 1-.2 1.4-.2 7.7.8 15.4.4 23.2.4H263c3.7 0 7.3-.4 10.9-.9.1.9-.6 1.1-1.3 1.1-3 .3-6 .5-9.1.5H29.1c-2 0-4.2-.2-6.2-.9z" fill="#bcbabb"/>
  <path d="M359 282.5l-.4-.7c-.4-.3-.5-.8-.5-1.3l-.1-1.4v-72.2c0-1 .1-2 .4-2.9.2-.5.3-.9.9-1.1.3 0 .3-.5.7-.2-.4 1-.5 2.1-.5 3.2v73.7c0 1.3.3 2.5 1 3.7.7 1 1.6 1.5 2.9 1.5h22.1c1 0 1.9-.3 2.9-.2.3 0 .6.1.6.4 0 .4-.4.3-.6.3H359.8c-.2 0-.6.1-.7-.3 0-.3.3-.4.6-.4h.8c-.6-.8-1.4-1.2-1.5-2.1z" fill="#cdcdce"/>
  <path class="st5" d="M83.3 277.9H93c1.2 0 1.4.3.9 1.4-.5 1-1.1 1.4-2.3 1.4H74.8c-.8 0-1.4-.2-1.9-.8-.4-.5-.6-1-.4-1.6s.9-.3 1.3-.3l9.5-.1z"/>
  <path class="st9" d="M402 276.8c.1-.2.3-.2.5-.1 1.6 1.5 3.7 2.1 5.7 2.7 5.6 1.7 11.2 3.7 16.9 5 2.4.5 4.8.8 7.3.8 4.2.1 8.3.2 12.5 0 3.7-.2 7.5 0 11.2-.2 2.9-.2 5.8 0 8.6-.2 3.7-.2 7.4 0 11.1-.3 3-.2 6.1 0 9.1-.2 3.1-.3 6.3 0 9.4-.2 2.7-.2 5.4 0 8.1-.2 1.9-.1 3.9 0 5.7-.9-.4.7-1.1 1-1.9 1.1l-3.2.2-14.3.3-19.4.5c-3.2.1-6.4 0-9.5.2-3.6.2-7.2 0-10.8.2-4.5.3-9.1.1-13.6.2-4.8.1-9.6-.4-14.2-1.8-5.5-1.7-11.1-3.2-16.5-5.2-1-.5-2-1.1-2.7-1.9zM280 284.5c25.6.4 51.2.4 76.7 0 .3 0 .5 0 .8.3-.4.5-1 .4-1.5.4h-74.3c-.6 0-1.2.1-1.8-.2-.2-.1-.5 0-.4-.4l.5-.1z"/>
  <path class="st10" d="M405.4 135.2c6 .4 11.9.1 17.8.4 3.7.2 7.4.1 11 .1l4.3.2c.9.1 1.3-.3 1.5-1.2l4.1-23.4 3.4-19.1 1.4-8c.5-2.5 2.7-3.3 4.7-1.6 1 .8 1.4 1.9 1.7 3.1l8.4 39.3 6 27.9.2.6.9-4.4 5.3-27.3c.2-1.2.6-2.2 1.9-2.6 1.2-.3 2.6.3 3.4 1.5.7.9.9 2 1.3 3l5.6 15.7c.3.8.6 1.1 1.4 1.1l5.3.5c.6.1.9-.1 1.1-.7 1.8-4.8 5.9-6.4 10.5-4.4a12 12 0 016 14.4c-2.1 5.3-8.2 6.5-12.6 2.5a13 13 0 01-3.2-4.2c-.2-.6-.6-.8-1.2-.8l-8-.7c-2-.2-3.2-1.3-3.9-3.2l-3.1-8.7-.5-1.2-1.6 8.3-4.2 22.1-1.1 5.3c-.4 1.9-1 2.7-2.4 2.8-1.8.1-3.3-.9-3.8-2.6l-1.3-6.1-8.6-40.1-4.4-20.9c0-.1 0-.3-.3-.4l-1 5.8a1609.8 1609.8 0 00-5.4 31.6c-.3 2.2-1.6 3.1-3.9 2.7l-35.8-7.2c-.3.2-.6.2-.9-.1zM179.9 221.9l8.2-1.4 9.6-1.6c.6-.1.9-.4 1-.9l6.3-17.3 6.1-16.3 1.2-3.2.5-.9c.5-.7 1.2-1.3 2.1-1 .9.3.9 1.2.9 2-.3 6.8-.6 13.5-1.1 20.3-.2 2.3-.2 4.7-.3 7l-.8 14.6-.1 4.7 1.9-4.5 7.6-19.1c.3-.9.8-1.7 1.8-1.9 1.1-.3 1.8.3 1.9 1.5l.5 6.8.4 5.4c0 .5.2.7.7.6l3.7-.2c.5 0 .6-.5.7-.8a9.3 9.3 0 013.2-3.6c3.4-2.4 7.4-.7 7.8 3.5.3 4-1.3 7.3-4.7 9.5-3.1 2.1-6.2.9-7.2-2.7-.2-.6-.4-.9-1.1-.8l-4.9.3c-1.4.1-1.9-.4-2.1-1.8l-.3-4.8c0-.5 0-1-.3-1.7l-1.4 3.3-9.1 22.9a3 3 0 01-1.1 1.6c-.5.4-1.1.6-1.8.3s-.9-.9-.9-1.6l.3-6.8.4-6 1.2-23.5.5-9.8-1.4 3.7-8.7 23.7c-.6 1.5-1.8 2.2-3.4 1.9-2.2-.4-4.4-.4-6.7-.6l-11.3-.8c.2.1.2.1.2 0zM378 245.5l-1.4 6.2c-.1.4 0 1-.6.9-.5-.1-.5-.6-.5-1l-1.4-11.5-.3-.8-1.2 6.5c-.2.9-.5 1.2-1.4 1l-4.2-1c.8-.6 1.6-.2 2.3-.2 2.3 0 2.2 0 2.6-2.2l1.6-7.8c.1-.3 0-.7.5-.8.5 0 .6.4.6.8l.7 5.9c.3 2.3.6 4.6 1.1 6.9l1.2-5.4c.1-.4.2-.9.6-.9s.5.4.6.8c.2.9.5 1.7.6 2.6.1.4.1.7.6.7.4 0 .8.1 1.1-.4.3-.6.8-1 1.6-.6s1.3 1.6 1.1 2.5c-.2.7-.5 1.3-1.3 1.4-.6.1-1-.3-1.2-.8-.2-.4-.5-.8-1-.7-1.2.2-1.5-.5-1.6-1.5-.4-.2-.4-.5-.7-.6z"/>
  <path d="M359.2 202.8a8.5 8.5 0 00-.9 3.8v72.8c0 .8.3 1.6.2 2.4l-1 .9c-.9.9-2 1.4-3.4 1.4h-71.3a5 5 0 01-5.1-5V167.4a5 5 0 015-5h71.2c2.9 0 5.2 2.3 5.2 5.2l.1 35.2z" fill="#fff"/>
  <path class="st4" d="M356.5 223.4v48.9c0 1-.2 1.3-1.2 1.3h-73.4c-1 0-1.2-.3-1.2-1.3v-97.9c0-1 .2-1.3 1.3-1.3h73.3c1.1 0 1.3.3 1.3 1.3l-.1 49z"/>
  <path class="st10" d="M322.2 233.8l1.8-6.2 2.1-7.2c.2-.7.6-1.2 1.4-1.3.9 0 1.3.5 1.6 1.2l2.1 6.3c.3.9.7 1.4 1.7 1.2h.5c1.1.1 1.9-.1 2.6-1.2 1.1-1.7 3.3-2.2 5.2-1.4 1.7.7 2.7 2.3 2.6 4.4a4.5 4.5 0 01-3.3 3.9c-1.9.5-3.7-.3-4.8-2-.3-.6-.7-.7-1.3-.7H331c-1 0-1.5-.4-1.8-1.3l-1.3-3.9-2.5 8.6-1.9 6.6c-.2.9-.6 1.6-1.7 1.5-1-.1-1.3-.8-1.5-1.7l-4.4-26.4c0-.1-.1-.3-.3-.3l-3.9 15.6c-.3 1.3-.8 1.6-2.1 1.5l-14.2-1.4a.5.5 0 01-.5-.3l3.9-.3 9.5-.7c.8 0 .9-.5 1-1.1l5.1-20.5.1-.5c.2-.8.6-1.4 1.5-1.4s1.3.7 1.5 1.5l.7 4.5 3.9 23.2c-.1-.2 0-.2.1-.2z"/>
</svg>
