<svg xmlns="http://www.w3.org/2000/svg" viewBox="0 0 612 398.7">
  <linearGradient id="a" gradientUnits="userSpaceOnUse" x1="5.3" y1="199.6" x2="605.9" y2="199.6">
    <stop offset="0" stop-color="#ffcd74"/>
    <stop offset=".4" stop-color="#f15a29"/>
    <stop offset=".7" stop-color="#ee252e"/>
    <stop offset="1" stop-color="#ef5aa0"/>
  </linearGradient>
  <path d="M496.6 374.7l-.2.4-.2.2c-1.9 1.5-3.9 2.9-5.7 4.5-2.9 2.5-6.8 3.1-10.1 5 3.8-2.2 7.5-4.5 10.9-7.4a57.3 57.3 0 0017.7-27.3c.1-.4.3-.9-.2-1.1-.6-.3-1.3-.1-1.8.4-.3.3-.4.8-.6 1.2a73.5 73.5 0 01-10.4 19.6c-3.3 3.5-6.5 6.9-10.5 9.6a42.3 42.3 0 01-10.1 5.3 56 56 0 0029.8-33.4 108 108 0 01-44.3 32.4l-.3-.5 2.4-.9c.7-.3 1.6-.4 2.5-1.5-3.4.6-6.1 2.4-9.2 2.4l.6-.3a91 91 0 0030.3-17.1c.4-.3.9-.7 1-1.3-3.7 3.1-7.8 5.7-11.7 8.4a84.6 84.6 0 01-21.2 10.2c-2.1.3-4.2.9-6.6.5.6-.7 1.3-.7 1.9-.8 6.6-.6 12.4-3.5 17.9-6.8 6.2-3.7 12-7.8 17.5-12.4.5-.4 1.1-.8 1.6-1.9l-1.7 1.4a108.9 108.9 0 01-23.9 15.8c-4.3 2-8.8 3.3-13.5 3.8-2 .2-4-.3-6.1-.2 5.5-1.4 10.9-2.6 15.7-5.9-5.4 2.2-10.8 4.6-17.2 4.6a80 80 0 0045.2-28.6c-1.5-.3-2.4 0-3.1 1a37.1 37.1 0 01-22.5 14.3 157 157 0 01-16.7 2.7c-.3 0-.7.2-1.1-.3l12.2-2.2c-6.8.8-13.5 1.9-20.3 2.2l4.7-.8c7.6-1.1 15.2-2.2 22.3-5.3 4.7-2 8.7-5.1 12.1-8.9l.6-.8.1-.6c-4.2 1.1-8.5.8-12.2 3.5-6.5 4.8-13.8 8-21.8 9.8l-2.2.4c-.2 0-.3 0-.5-.2l4.1-1c-4.1.5-8.1 1.7-12.3 1.4 9.9-1 18.9-4.5 27-10.2-1.9.5-3.9-.3-5.7 1l-.1-.5 5.9-3.1c-1.1-.8-2 .2-2.9-.5 1.5-1 3.3-1.1 4.8-1.8-3.5.4-6.8 1.4-10.1 2.2 1.2-.9 2.7-1.1 4.1-1.5a120 120 0 0111.9-2.6c.9-.1 1.5-.4 2.1-1 6.9-6.3 13.1-13.3 18.5-21l5.5-7.9-8.7 6.6a287.6 287.6 0 01-53.2 33.3c-1 .5-2.3 1.7-3.5.1-.1-.1-.7.2-1.1.3l-7 3.1c.4-.9.9-.9 1.4-1.1a263 263 0 0047-26.8c1.5-1.1 2.1-3.1 3.7-4.1a305.2 305.2 0 01-34.3 21.8c-6 3.2-12.1 6.2-18.5 8.6a281 281 0 0031-16.8c-6.4 3.7-12.8 7.4-19.5 10.7a170 170 0 01-20.6 8.8l8.1-3.6a251.6 251.6 0 0046.4-26.7c3.1-2.3 5.9-5 8.8-7.6l.4-.7c.7 0 1.2-.4 1.7-.8l8.8-6.8 7.4-5.3c-2.4.9-4.4 2.3-6.5 3.7-3.6 2.5-6.8 5.6-10.3 8.2 1.1-1.9 3-3 4.5-4.5.7-.7 1.5-1.2 2.1-2-8.3 5-15.7 11.2-23.3 17.2l-.2-.3c0-.8.6-1.8-.1-2.3-.8-.4-1.3.6-1.9 1.1-7.1 5.6-14.2 11.3-22.1 15.8-7 4-14.4 6.7-22.3 8.1-2.5.4-5.2.3-7.8.1-5.3-.5-10.5-1.9-15.8-2.5l2 .1c-3.1-1.8-6.8-1.6-9.9-3.2.4-.9 1.1-.4 1.6-.9-3 .3-5.5-1-8.1-2.1l1 .1 1.2.1 1.3.5a49.4 49.4 0 0025.3-.9c10.3-3 18.9-9 27.3-15.4l.6-.6c.2-.2.3-.5 0-.8h-.6l-1 .7c-6.4 4.9-13 9.4-20.3 12.7a48.3 48.3 0 01-23.1 4.8c-3.2-.2-6.3-.8-9.5-1.1l-1.7-.9c2.5.1 4.9.7 7.4.9 7.5.5 14.7-.8 21.7-3.5 8.2-3.2 15.3-8 22.2-13.3 1.9-1.5 3.9-2.8 5.5-4.7-1.4.6-2.9 1.1-4.1 2.1-3.3 2.7-6.7 5.2-10.3 7.5a65.8 65.8 0 01-25.8 11c-3.7.6-7.5 1-11.2.2-1.7-.4-3.5-.6-5.3-.2-2.3 0-4.1-1.4-6.2-2 2.7.5 5.5.9 8.2 1.2 10 1.2 19.4-1 28.4-5.3 8.8-4.3 16.6-10.2 24.1-16.5-1.3 1.2-3.1 1.2-4.4 2.3a85.9 85.9 0 01-30 17.3c-4.4 1.3-9 2.3-13.5 2.1a59 59 0 01-16.1-2.7c-.4-.1-.8-.2-1-.9 3.7.6 7.4 1 11.1 1.1 5.3.2 10.3-.6 15.4-2.3a94.4 94.4 0 0028.5-16.5c1.5-1.2 3.2-2.1 4.4-3.7-3 2.3-6.5 3.7-9.6 6.1a74.9 74.9 0 01-28.8 14.6 55.8 55.8 0 01-15.8.8c-4.6-.3-9.1-.7-13.5-2.2-.3-.1-.7-.1-.9-.6.8-.3 1.5.5 2.3.2-.7-1-2.1-1.1-2.9-1.9 2.6.3 5.1.9 7.6 1.3 6.8 1.1 13.5.5 20.2-1.3 9.9-2.7 18.5-8 26.6-14.1l11.8-9.5c.3-.3.8-.4.9-1.1l-2.5 1.2.5-1.2-1.5.8a75.4 75.4 0 01-74.4 3.9l-3-1.3c.4-1 1.2-.7 2-.5a80.2 80.2 0 0028.1 3.5c-3.7-.3-7.5.2-11.3-.5.3-.7.9-.5 1.2-.5a79.2 79.2 0 0051.6-14.6l15-10c-1.9-.4-4.7.2-7.3 1.6l-6.5 3.5-.2-.4 6.8-3.8-.1-.3-3.9.1a121 121 0 01-30.5-4l-9.2-2.5c-1-.3-1.8.1-2.6.5-9.1 4.6-18.3 9.1-27.8 12.9a138.4 138.4 0 01-34.6 9.3 76.1 76.1 0 01-30.4-2.3c.5-.5 1-.1 1.4-.2l1.1.4a85.5 85.5 0 0026.7 1.5c15.1-1.6 29.2-6.5 43-12.5.3-.1.9-.2.7-.8-.9-.1-1.7.5-2.4.8-9.5 4.2-19.3 7.7-29.5 10a87.9 87.9 0 01-27.5 2.3c-4.1-.3-8.1-1.1-12.1-1.7-1.4-.7-3-.5-4.6-1a49.8 49.8 0 01-13.7-6.2c-3.4-2.3-7.5-3.5-11-5.6-.7-.4-1.4-.7-2.3-1.7 3.3 1.2 5.9 3 8.9 3.7-4.8-3.4-11-4.5-15.2-9 2.3.8 4.4 2 7.1 3l-1.5-1.1c3 .6 5.6 2.1 8.6 2.9 9 2.6 18.2 3.5 27.6 2.8 11-.8 21.5-3.5 31.8-7.2 4.9-1.7 9.6-3.7 14.4-5.8.4-.2 1.1-.2.8-.9-.2-.6-.8-.2-1.2-.1l-3.9 1.2c5-2.6 10.1-4.8 15.2-7.5-1.1-.6-1.8-1.1-2.8-.7-6.9 2.8-13.9 5.3-20.9 7.6-6.8 2.3-13.4 5-20.3 6.8a96.2 96.2 0 01-32.9 3.4 90.3 90.3 0 01-15.5-3c-.3-.1-1-.8-.7.3-4.5-2.3-9.4-3.8-13.6-6.8 7.9 3.8 16 6.7 24.7 7.6l1.3.3c7 .2 14 .7 21-.3 4.1-.6 8.1-1.2 12.1-2.4a233 233 0 01-34.4 2.4c-2.9-1-6-1.1-9-2.1-1.4-.5-2.8-.9-4.1-1.5A76.5 76.5 0 00276 293c-11.9-.6-23.9-1.4-35.6-3.9.2-1 1-.6 1.2-1.2-1.6-.7-3.4-.5-5.4-1.8 4 .5 7.6 1.4 11 1.3-4.5-1.6-9.5-2.1-14.3-3.5l3.7.3c-1.7-.7-3-1.1-4.2-1.7-1.1-.6-2.6.2-3.3-1.8-.4-1.1-2.5-1-3.7-1.7a55.7 55.7 0 0023-.2c-.5-1.1-1.4-1.1-2.2-1.1-6-.1-12.1.5-18.1-.4-1.6-.2-3.1-.6-4.7-1.2 2.3.4 4.6.5 6.9.7 4.6.5 9.2.5 13.7-.6.5-.1 1.5.2 1.4-.8-.1-.7-.9-.6-1.6-.6-3.1.4-6.2.8-9.3 1a38 38 0 01-14.2-1.6l4.2.3c6 .9 11.9.7 17.8-.6.5-.1 1.5 0 1.3-.8-.2-.7-1-.3-1.5-.2-1.8.3-3.6 1.1-5.3 1-4.2-.4-8.4.2-12.6-.1-2.7-.2-5.1-1.1-7.7-1.8 6.1.9 12.2 1.5 18.3.3-4-.2-8 .3-12-.5l3.6.3c-3.9-.8-7.9-.6-11.6-2.1 5.1.4 10.2 1.5 15.3.6l1.9-.1a49.3 49.3 0 0025.5-10.6c-1.1.1-1.5.6-2 1a54.2 54.2 0 01-15.2 7.6c-3.3 1-6.8 1.4-10.2 2.1-5.5.1-11 0-16.3-1.9 14.8 2.7 28.4.7 40.6-8.9-1.1-.9-1.9-.5-2.9.1-4.5 3-9.3 5.4-14.6 6.9-2.9.8-5.8.9-8.7 1.2-4.5.5-8.9 0-13.4-.4-1.6-.1-3.2-.6-4.7-1.2 14.5 2.7 27.9.7 40-8l-4.9 2.6a42 42 0 01-19.4 5.8c-5.8 0-11.7-.2-17.3-1.9l-.5-.4c3.7.3 7.2 1.2 10.9 1.2-.3-.4-.7-.1-.9-.3-2.2-1.3-4.7-1-7.1-1.2-3.6-.3-6.4-2.5-9.7-3.8 5.1.6 10.1 1.3 15.5.9l-1.2-.4a49 49 0 0028.9-11c-1.2-.6-1.9.1-2.6.6a53 53 0 01-13.1 6.9l-1.7.4-.2-.1c-.3-.3-.6-.2-.9 0l-1-.1c.2-.3.5-.6-.2-.5l-3.3.7c-3.8.6-7.7.5-11.6.6-4.6.1-9-.7-13.2-2.7 1.3-.1 2.5.4 3.8.2 0-.4-.5-.2-.5-.4 0-.4.3-.2.5-.2 2 .1 3.9.3 5.9.3-4.4-.6-9-.4-13.3-2.3a51.4 51.4 0 0029.3-2 57.1 57.1 0 01-30.1 1.1c-3-.6-6.1-.8-9.1-1.8 6.3.9 12.5 1.1 18.8.2-6.9-.1-13.7-.8-20.4-2.8a5.3 5.3 0 01-3-2.3l-.5-.2-5.5-1.7c5.2.6 10.4 1.3 15.6.7-5.9-.1-11.7-.4-17.3-2.6 5.5.6 11 1.4 16.6.7-2.1-1.1-4.3-.9-6.5-.9.1.5.7 0 .9.6-4.7-.9-9.5-.7-14-2.5a53 53 0 0024.4-.8l-2.3.1c-4.7.6-9-1.2-13.4-2.4-2.9-.8-5.6-2.2-8.8-1.8.2-.6.8-.1.9-.7a49.5 49.5 0 00-11.9-3c-.9-.1-1.9-.2-2.7-.6a29.6 29.6 0 00-9.2-2.3c-2.7-.4-4.7-1.8-6.5-3.6-.8-.8-2-.8-2.8-1.9l4.4 1c8.6 1.8 16.5-.5 24.1-4a105 105 0 0030.8-22.5c3.9-4 7.5-8.3 10.7-12.8 1.6-2.2 2.2-4.8 3.5-7.2 3.6-6.6 7.3-13.1 11.5-19.3l.2-.7c-7.2 6.7-11.7 15-17.2 22.7l3.2-5.2c-6.2 8-11.8 16.4-20.1 22.5-.3-.3 0-.4.1-.5a87.8 87.8 0 0016.8-19.2c3.3-4.6 6.7-9.2 10.3-13.6l1.2-1.7c-9.5 10.3-16 23-26.7 32.3 2.6-2.8 5.2-5.6 7.6-8.7 2.4-3 4.4-6.2 6-9.8a72 72 0 01-68.4 35.6c2.5-.2 5-.2 7.5-.5l11.2-1.5c.8-.1 2.2-.2 1.9-1.2-.2-.8-1.5-.5-2.3-.3-3.9.9-7.9 1.6-11.9 1.9-2.6.2-5.3.2-8 0l8.4-.7c.5-.1 1.5.1 1.4-.6-.1-.8-1-.4-1.6-.4-2.5.2-4.9.7-7.4.7-.5 0-1.1.3-1.8-.4l5.8-.4c1.9-.1 3.8-.3 5.6-1-5.3.3-10.5.3-15.8.1 15.8-.6 30.4-5 43.4-14.8-1-.2-1.4.3-1.8.6a70.3 70.3 0 01-34.7 12.9 5 5 0 01-2.1-.2c-.7-.2-1.4-.6-2.2.3-.8.8-7.4.3-8.3-.5.3-.5.9-.3 1.3-.3 2.1.2 3.9-.9 5.9-1 14.2-.8 26.7-6 37.8-14.7 6.3-5 11.6-10.9 15.1-18.2 1.5-3.2 3.4-6.3 4.9-9.5l-7.4 9.1c3.2-5.1 7.1-9.6 10.9-14.3-.5-.3-.7.1-.9.3-3.8 3.8-8.3 6.7-12.3 10.2a167.3 167.3 0 01-37 25.9c-1.6.8-3.5.2-4.9 1.5-.4 0-.8.2-1.1.6h-.4l-.3.3-.7-.1-.3.2c-.8 0-1.5.3-2.2.6a82 82 0 01-17.6 5.6c-1.6.4-3.1-.7-4.7-.1-.2.1-1.3-.8-1.3-1.2 0-.9 1-.3 1.5-.5 6.2-2 12.3-4.1 18.1-7.3a182 182 0 0023.3-15.6c2.7-2.1 5.4-4.2 7.9-6.5l-8.7 6a159 159 0 01-31.6 17.3 87 87 0 01-30.2 6.2c-4.3.1-8.5-.5-13-2.1 1.1-.2 1.8-.4 2.5-.2a45.1 45.1 0 0021.9.4 93.2 93.2 0 0019.9-6.7l8.7-3.9c.9 0 1.7-.5 2.4-.9 5.8-3.1 11.3-6.6 16.7-10.3 5.1-3.5 10.1-7.2 15.1-10.8-2 .5-3.3 2.1-5 3-.5-.1-.9 0-1.3.3l-20.3 11.2a162.8 162.8 0 01-32.7 14.7c-3.7 1.1-7.4 2-11.3 2.1l7.6-1.6c11-2.8 21.2-7.6 31.1-13.1 10.5-5.7 20.9-11.7 31.3-17.5.6-.3 1.1-.7 1.5-1.2l-8.8 4.9c-10.7 5.8-21 12.1-31.9 17.5-8.9 4.4-18.1 8.1-28 10.1a45 45 0 01-19 .3c-3.5-.8-6.8-2.1-9.6-4.4a6 6 0 00-2.1-1.1c-1.8-.6-3.6-1.4-4.9-2.8-1.3-1.4-3.2-2.1-4.9-2.9a19 19 0 01-4-2.1c1.6.4 3.2 1.1 4.7 1.7a130 130 0 0019.3 4.9c1.5.3 3.3.7 5-.3.6-.4 1.6.9 2.3-.3 4 1 7.2-1.5 10.8-2.4 4.6-1.2 9-3.1 13.2-5.3 12-6.2 24.1-12.4 35.4-20.1l-4.7 2a286 286 0 01-32.1 11.6c-10.3 3-20.8 5.3-31.6 5.6-8.8.3-17.2-1.2-25-5.5a13 13 0 01-4.5-3.7 42.3 42.3 0 0024.3 8.2c14.3.7 27.9-3 41.3-7.4a309.4 309.4 0 0045.3-18.9l2.5-1.3c.4-.2.8-.5 1.1-1l-1.6.6c-13.5 5.4-26.9 11.1-40.5 16a87 87 0 01-22.1 4.7c-3.3.3-10-.6-12.5-1.6.1-.3.4-.2.5-.2 2.3.6 4.6 0 6.9.4 6.1 1 12.1 0 18.1-1.7a250 250 0 0034.2-13.4c-4.9 1.8-9.9 3.7-14.9 5.4-9.4 3.1-18.8 6-28.7 7.1-5.2.6-10.4 1.5-15.6.8-1.6-.2-3-.7-4.4-1.5 3.4 1 7 .9 10.5 1-2-.8-4.2-1.1-6.1-2.4.7-.2 1.2.2 1.7.4 2.8 1.1 5.5 1.4 8.5.5a297 297 0 0034.7-12.9c-5.3 1.4-10.6 2.8-16 4-8.3 1.9-16.4 4.2-24.9 5a43 43 0 01-16-1l-1-.3c-.3-.2-.6-.4-.4-.8.2-.3.5-.3.8-.2 5.9 2.5 12.1 2 18.2 1.3 5.5-.7 10.9-2.2 16.3-3.5 5.8-1.4 11.7-2.5 17.4-4.4 7.7-2.6 15.6-4.7 23-7.8a379 379 0 01-17.4 5 249 249 0 01-45.4 7.7c-4.2.3-8.4.7-12.7.4-1.1-.1-2.1.6-3.4.3-4.9-1.3-10-1.4-14.5-4l3.4 1.2a56.2 56.2 0 0019.1 1.8 246.7 246.7 0 0084.8-19.2c-7.7 2.1-15.5 4.1-23.3 5.6a394.5 394.5 0 01-49.5 6.5c-12.3.8-24.6 1.8-36.9.9a28 28 0 00-17.3 4.7c-4.7 2.8-9.5 5.6-14 8.7 2.3-2.6 5.1-4.6 8.1-6.4 2.9-1.8 5.9-3.4 8.9-5.1 1-.6 2.6-1.4 2.5-2.1-.2-1-1.9-.5-2.9-.7-4.4-.5-8.6-1.9-12.7-3.4-1.2-.4-2.1-.5-3.1.1l-5 3.1c-.4.3-.7.8-1.5.6 1.9-1.7 4-2.9 6-4.2.2-.1 1.7-.1.4-1-.3-.2.4-.6.7-.7 9.1-4.3 18.6-7.3 28.2-10a364.6 364.6 0 0182.4-12.4 260.8 260.8 0 00-40.6-.5 370.9 370.9 0 00-63 10.2c-4.7 1.2-6.9 4.3-8.6 8.2l-.4 1.1-.1.1c-.1-1-.1-1 1.2-3.5l2.1-3.6c-4 1.2-7.3 3.2-10.6 5.1 1-1.4 2.5-2.1 4-2.8a58 58 0 0013-7.9 41 41 0 0112.6-6.6c12.7-4.7 26-6.4 39.4-7.3a230 230 0 0158.6 3.2l2.1.2a313.3 313.3 0 00-51.1-6.5 157.3 157.3 0 00-58.2 12.4c-.6.3-1.3.5-2.1.4l8.7-3.5 9.1-3.1c3-1 5.9-2 8.9-2.8 3.1-.8 6.2-1.4 9.3-2.3-1.9-.4-3.9.2-5.8.1 6.4-1.3 12.8-1.4 19.3-2-7.2 0-14.4.5-21.6 1.2 18.7-2.7 37.5-2.1 56.1-1.2a218.4 218.4 0 00-32.5-3.7c-11-.5-22 0-32.8 2.8-3.1.8-6.1 1.9-9 3.1 1.8-1.3 3.8-2 5.8-2.8a92.3 92.3 0 0125.5-4c5.2-.3 10.3-.5 15.5-.4l-1.2-.3c6.1.7 12.2.8 18.2 1.2l-13.3-1c11.8-1.5 52.6 6.5 79.1 15.3a235.4 235.4 0 00-58.8-21.7 238.7 238.7 0 00-43-5.5 10 10 0 00-5.1.9c-3 1.4-6 2.7-9.1 3.9 2.9-1.8 6-3.2 9.1-4.6-5.4 0-10.6.7-15.7 2.7-3.4 1.4-6.9 2.6-10.1 4.5h-.4l-.7-.1c.6-1.4 2-1.6 3.1-2.3 1.1-.7 2.4-1.2 3.5-1.8-4.8 1.4-9.1 4-13.1 7 .1-1.3 1-1.6 1.8-2.2 6-4.1 12.6-6.8 19.8-7.7 6.4-.8 12.5-2.5 18.7-4.1 3.2-.8 6.5-1.2 9.8-1.5 2.2-.1 4.5-.7 6.7-1.2 3.6-.8 7.2-.7 10.8-.8 2.1 0 4.2.4 6.8.3a76.6 76.6 0 00-30.1-.9c3.9-1.2 7.8-1.5 11.8-1.7 3.5-.2 6.9.7 10.4-.1.3-.1.6 0 .9.1 7.5 1.5 14.9 3.2 22.4 4.8 10.5 2.3 20.7 5.7 30.6 10l.9.3c-7.1-4.9-14-9.2-21.3-13-9.7-5-19.9-8.8-30.5-11.2-.4-.1-1.1.2-1-.8 0-.6-.7-.4-1-.2-1 .6-2 .3-3 .1 0-.6.8 0 .7-.7a46.6 46.6 0 00-20 .6l3.1-.9c1.1-.3 2.3-.4 3.4-.8-5-.2-10 .5-15 .9 11.6-2 23.2-2.8 35-1.4-1-.5-2.2-.2-3.1-.8 21.5 2.5 41.1 9.9 58.9 22.4-8.2-7-32.1-20.4-44.1-21.3.2-.5.7 0 1-.4-4.2-.4-8.2-1.2-12.3-1.5 3-.9 5.9.3 8.9.2L93.8 70c3-.4 15.6 2.3 28.4 6.2 9.4 2.9 18.2 7 27.2 12-.4-1.4-1.2-1.5-1.8-1.9-7.5-4.3-15.4-7.6-23.2-11.2-8.6-3.9-17-8.1-24.4-14a47.4 47.4 0 01-7.7-7.8c-.2-.3-.6-.5-.4-1.3a53 53 0 0012.9 11.7c4.8 3.2 9.8 5.8 15.1 8.2-8-4.2-15.9-8.6-22.2-15.1-1-1.1-2-2.2-2.8-3.5 2.2 2.1 4.3 4.5 6.8 6.3-2-2.4-4.7-4.4-6.1-7.4a75 75 0 0020.1 15.3 63 63 0 01-14.9-11.8c-.9-1.1-2-2.1-3.1-3.2.9-.5 1.1-.1 1.2.1 5.4 7 12.6 11.7 20.1 15.8 9.1 5 18.9 8.7 28.2 13.3l11.8 5.9-2.7-1.8c8.3 3.6 16 8.2 23.6 13.1l-2.7-1.9-2.8-1.8a606.7 606.7 0 00-39.7-19.6 112 112 0 01-25.6-14.7 34.1 34.1 0 01-7.5-8.1 64.3 64.3 0 0021.3 16A58.4 58.4 0 01109 58.2c6.5 5.9 14.1 10 21.9 13.8 3.9 1.9 7.8 3.8 11.9 5.3l1.5.8c5.9 2.6 11.5 5.5 17.2 8.5l8.2 4.4a153.7 153.7 0 00-27-13.7l-10.2-4.9a91.4 91.4 0 01-20.3-12.8c-2-1.8-3.9-3.6-5.2-5.9 1.8 1.3 2.8 3.7 5.7 4.5-1.5-2.5-3.6-4.1-4.4-6.6l1.9 2.5a62.4 62.4 0 0023.9 17.3 502.2 502.2 0 0140.4 19.7 129.6 129.6 0 0123.1 16.1 187.2 187.2 0 00-24.7-26.3 58.4 58.4 0 00-13.8-8.7c-8.1-4-16.3-7.8-24.4-11.7a53 53 0 01-14-9.9l-1.6-1.6.3-.3 1.7 1.4.2-.2-.9-1.3c5.4 4.7 11 9.1 17.7 11.9-2.8-1.8-5.7-3.4-8.4-5.4-2.6-2-5.1-4.1-7.1-6.8 2.9 2.6 6 5.1 9.4 7l-4.3-3.6.3-.4c4.6 4 9.7 7.2 15.4 9.5-13-5.9-21.4-16.5-28.8-28.6 1 .5 1.3 1.1 1.7 1.6a94.4 94.4 0 0015.9 18.7c3.9 3.4 8.7 5.2 13.1 7.8 2.9 1.7 5.9 2.9 8.9 4.3.6.3 1.1.7 2.3.3l-10.4-5.1.2-.4 4.4 2.1c8.1 3.8 16.3 7.3 24.2 11.6 9.9 5.5 18.2 12.9 26 20.9 6.3 6.4 12 13.4 17.5 20.6l-3.1-5.9c-1.1-2-2.3-4-3.3-6.1 3.9 5.1 6.6 11.1 10.1 16.5l-1.5-3.9c-3.2-10.2-9.2-18.8-15.2-27.5-9-13-21.1-22.3-33.6-31.6-7.8-5.8-15.4-12-22.4-18.8-.6-.6-1.3-1.3-1.1-2.4 1.1 1.3 2.6 2.1 3.7 3.4.4.5.9 1.1 1.4.7.6-.5-.2-1-.6-1.4-3-2.9-5.5-6.1-8.2-9.3-.4-.5-1-1-1-1.8 1.7.6 2.4 2.4 4 2.9-1.8-3.1-4.3-5.7-6.1-9 1-.2 1.1.4 1.4.8 1.9 2.6 3.6 5.4 5.8 7.9 4.2 4.8 8.6 9.3 13.6 13.3 4.6 3.7 9.4 7.2 14 10.8l1.2.7c-4.1-3.4-8.2-6.9-12.2-10.5-4-3.6-7.5-7.8-10.6-12.3l1.7 1.9 2 2c1.2 1.2 2 2.9 3.7 3.6.9.6 1.2 1.7 2.3 2l.3.4c.3.7.8 1.2 1.5 1.4l.1.1.3.3c.2.4.5.7 1 .8l.3.4c.2.4.5.7 1 .8l.3.4c.1.2.2.5.6.5v-.3l.2-.6a4 4 0 011.7 1.2c3 2.8 6.8 4.5 10 7.2-4.8-4-9.7-7.9-14.2-12.2-4.5-4.4-8.5-9.2-12.1-14.3-3.6-5.2-7-10.5-10.3-16.2.7.1.9.6 1.1.9 3.1 4.6 5.9 9.4 9.3 13.8 2.9 3.8 5.6 7.8 9 11.2 1.4 1.4 3.5 2.2 4.9 3.8l.3.4 1 .8.3.4.3.4.3.4.3.4.7.4.3.4.3.4c.2.4.6.7 1 .8l.3.4.7.4.3.4-.3-.4-.7-.4-.3-.4-.3-.6v-.7l.2-.5c2.8 2 5.2 4.4 7.9 6.6 7.3 6.2 15.1 11.9 23 17.2a108.2 108.2 0 0128.2 30.2c3.1 4.5 6.2 9 8.6 14.1l-1.4-5c-.1-.6-1-1.5.3-2 .3-.1 0-.8 0-1.1a61 61 0 00-9.4-26c-2.8-4.4-5.6-8.8-8.7-12.9a48 48 0 00-16-13 111 111 0 00-21.7-8.1c-6-1.7-11.2-5.1-15.5-9.6l-.8-.9-.1-.5c.3-.3.6-.1.8.1a40.4 40.4 0 0020.5 11.5c11.3 3 21.7 7.8 30.5 15.8A77 77 0 01232 74.5c.3.4.4 1 1.1 1.2-1-2.5-2.4-4.5-3.8-6.6A52.5 52.5 0 00213 52.9c-7-4.3-14.6-7.1-22.4-9.4-2.7-.8-5.4-1.4-7.9-2.7-.7-.4-1.5-.7-2-1.4 4.4 2.4 9.3 3.2 14 4.6l-8.4-3.2c-1-.4-2-.8-2.3-2.1.9-.2 1.4.7 2.5.9-3.8-2.8-7-5.6-9.1-9.6l1.5 1.8c4.2 5.4 9.9 8.9 16.2 11.3 4.4 1.7 9.2 2.6 13.6 4.4a74.2 74.2 0 0126.8 16.1c2.1 2.1 3.8 4.5 5.7 6.8 2.4 3.1 4.7 6.2 6.8 9.6.9 1.4 2 2.9 3.1 4.2-1.3-3.8-3-7.3-5.1-10.6-3.7-6.1-7.8-11.8-12.5-17.1a51.1 51.1 0 00-20.9-13.7c-3.2-1.3-6.3-3-9.1-5-.6-.4-1.3-.8-1.8-2 3.3 2.5 6.4 4.3 9.8 5.8l8 3.6c8.8 3.9 15 10.6 20.8 17.9 2.7 3.4 5.1 7.1 7.7 10.6.3.4.4 1 1 1 .4-.5.1-.9-.2-1.3a91.1 91.1 0 00-18.7-22.8c-4-3.3-8.8-5.1-13.5-7.2a48.3 48.3 0 01-12-7l-.8-.8c.1-.3.3-.3.4-.2 3.7 3.3 8 5.7 12.6 7.3a62.3 62.3 0 0129.5 24.6 103.4 103.4 0 0116.2 38.2l1.9 7.8.4.6-1.1-4.8a125.3 125.3 0 00-10.4-31.5A96 96 0 00234 52.1a39.7 39.7 0 00-12.1-7.5c-5-2.1-10-4.4-14.4-7.7a9.2 9.2 0 01-2.2-2.2c2.7 1.1 4.6 3.6 7.8 4.8-2.4-1.9-4.5-3.4-5.9-5.8l2.4 2.2 2.7 2.1c.9.7 1.8 1.6 3 1.6 1.4.3 2.2 1.4 3.4 2l13.4 6.3c1.1.5 2.1 1.2 3.5 1.5-.8-1-1.8-1.5-2.6-2-5.4-3.4-11.5-5.4-17-8.4-.3-.2-.7-.1-1-.2-.9-.8-2.1-1.2-2.6-2.4 3.2 1.7 6.2 3.5 9.5 4.8l6.1 2.7c5.7 2.3 10 6.5 14.4 10.5a103 103 0 0120.3 26.1c.6 1.1 1 2.2 1.8 3.2-1.1-2.8-2-5.6-3.2-8.3-1.5-3.2-3-6.4-4.9-9.4a55.2 55.2 0 00-15.6-16.4c-1.9-1.5-4.2-2.3-6.4-3.1-.5-.2-.5-.2-.6-1.1-.1-.5-.6-.6-1-.8-4.2-2.3-8.6-4.3-13-6.3-.5-.2-1.1-.2-1.4-.8.6-.6 1.2-.1 1.8.1l15.4 6.5a94.4 94.4 0 0125.3 14.1c.5.4.9.9 1.7.8 1.2.4 2 1.4 3 2.1l.3.4.6.3.9.1 1.7.9c.4.2.7.2.6-.4 0-.7-.4-1.1-.9-1.4-3.4-2.1-5.7-5.4-8.4-8.3-4.6-4.8-8.7-10-11.1-16.3-.6-1.5-1.1-3-1.1-4.7.9 2.5 1.6 5.2 3.1 7.5-1.2-3.7-2.8-7.2-2.4-11.2a31 31 0 005.7 14.6 56.4 56.4 0 01-3.1-8.1l-.3-1c-.1-.3-.2-.8.3-.9.6-.1.4.4.4.7a22 22 0 003.1 7.8c-1-3.3-2.6-6.5-1.9-10.4.6 5.4 2.1 10.1 5 14.2-1.4-3.9-3-7.7-2.7-12 .6 4.2 1.8 8.2 3.8 12-.8-2.6-1.6-5.1-1.4-7.9.6 5.4 2.8 10.2 6.1 14.6a52.7 52.7 0 01-4.4-11.4l.5-.2.7 2.1a29.4 29.4 0 008.5 14.4c4.2 3.7 7.6 8.1 11.8 11.8 4.2 3.7 8.6 7.1 12.8 10.8 5.3 4.7 11.1 8.9 16.1 13.9 2.7 2.7 4.7 5.9 7.1 8.8 5.7 6.8 8.5 15.1 11.6 23.2.2.6.2 1.9 1.2 1.5.7-.2 0-1.3-.2-1.9-3.2-9.7-8-18.6-13.8-27.1a146 146 0 00-14.2-18C296.5 74 291 69.2 285.9 64c-3.9-4-7.4-8.2-9.7-13.3-.7-1.7-1.2-3.3-1-5.2.7 1.9 1.1 3.9 2.2 5.6l-.8-4 .4-.2c.6 4 2.3 7.2 5.2 9.9.5-.4-.2-1 .3-1.5 2 3.2 4.8 5.8 7.5 8.3l6 5.5c-1.4-1.8-2.8-3.5-3.9-5.5-1.2-2-2.2-4.1-2.7-6.4-.4-2.3-.6-4.5.1-6.8h.5l-.2 2.6c-.3 3.7 1.1 6.9 3 9.9.3.5 1.1.8 1.7 1.2A199.4 199.4 0 00317 88.3c4.1 3.8 7.5 8.1 11.1 12.4a128 128 0 0115.1 22.7 108 108 0 0111.1 33.6l.2.7a64 64 0 00-3.4-23c-2.2-7.5-5.2-14.8-8.8-22 4.3 3.7 12.1 28.2 13.5 41.6 1.3-3.3 2.3-6.6 2.8-10.1 1.2-7.7-.7-14.7-3.5-21.9-2.3-6-5.3-11.5-8.8-16.8l-7.7-11.3c-3.1-4.2-5.9-8.6-8.9-12.9-2.7-3.8-5.2-7.8-8.1-11.5-2.1-2.7-3.8-5.8-5.7-8.7-.6-.9-.3-1.9-.2-2.9.6.2.5-.2.4-.5l-1.7-4.1c-.3-2.4-1-4.8-1.1-7.2-.1-2.5.4-4.9 1.4-7.2-1.4 4.4-1.1 8.8.1 13.2 1.2 4.4 3.3 8.3 5.8 12-3.1-6.9-5.7-13.8-2.8-21.4-2.7 9.2 1.2 16.9 5.7 24.4-2.7-6.8-4.7-13.7-2.2-21-.7 2.9-1.1 5.8-.6 8.8.5 3 1 5.9 3.1 8.4-1.2-5-1.4-10 .5-14.8-2.4 6.7-.6 12.9 2.1 19l.4.9c.2.4.5 1 1 .7.4-.2.1-.7 0-1.1a23.4 23.4 0 01-1.2-12c.1-.7.2-1.5.8-2.6-.5 2.7-.9 5-.7 7.3.6 6.3 3.3 11.8 6.4 17.1 4.1 6.8 9.2 13 13.7 19.5.2.3.5.9.9.6.5-.3.2-.8-.1-1.2-.3-.5-.8-1-.8-1.7v-.1l-.9-1.6-.3-.4-.3-.3-.2-.2-1.3-2-.3-.3-.2-.2-.5-.6-.1-.2-.7-1.3-.3-.3-.1-.1-.2-.2-.2-.2-.1-.2-.7-1.3-.2-.3-.1-.1-.2-.2-.2-.2-.1-.2-.4-.9-.2-.3-.3-.3-.3-.2c-.4-1.6-1.7-2.6-2.2-4.1l-.3-.4-.3-.4V78l-.1-.2-.3-.4c-2.4-5.1-5-10.1-5.9-15.9-.5-3.5-.1-7.4 1.6-9.9-2 4.9-1.3 9.7.1 14.5 1.3 4.5 3.7 8.5 6.2 12.3-3.7-7-7.3-13.9-5.7-22.2v4.5c.6 6.9 3.6 12.8 7.2 18.5 6.2 9.6 13.2 18.5 19.7 27.9 6 8.6 12.3 17 17.5 26.2a48.2 48.2 0 016.8 20.9c.2 3.4 0 6.7-.5 10.1 2.3-4.1 4.3-8.4 5.7-12.9 2.5-8.1.8-15.6-3.5-22.7-3.3-5.4-7.3-10.2-11.4-15-9.3-9.9-18-20.7-26.4-31.7a70.5 70.5 0 01-7.3-11.6 20.6 20.6 0 01-2.1-9.1c.7 3.3 1.3 6.7 3.3 9.6-.5-3.7-1.2-7.3-.7-11l.4 3.7a32 32 0 007 16.6 515.7 515.7 0 0031.6 39.2c3.5 4.1 6.9 8.3 9.8 12.9.3.4.5 1.1 1.5 1a69.5 69.5 0 00-4-6c-4.4-5.8-9.2-11.2-14-16.7-7.2-8.2-13.7-17-20-25.9a40.1 40.1 0 01-6-11.4c.7.2.7.7.8 1.1 1.7 4 4 7.7 7.1 10.8.5.5.8 1.2 1.2 1.7l7.2 8.9c1.7 2.1 3.1 4.3 4.9 6.3 4.9 5.3 9.5 11 14.2 16.4 5.4 6.2 10.9 12.3 15.2 19.3 2.3 3.8 5 7.2 7.7 10.7.4.5.7 1.3 1.4 1.2.3-2.6-.1-5.1-.6-7.6a85 85 0 00-6.1-19.1c-1.9-4.3-4.9-8.2-7.6-12.1L374 85.7c-2.3-3.3-4.6-6.5-7.2-9.6-1.2-1.4-2.4-2.9-4.1-4-.5-.3-1-.8-.9-1.6l2.7 2.3c2 2.1 4 4.5 6.5 5.7 4.8 2.4 7.3 7.2 11.2 10.5.7 1.3 1.3 2.7 2.6 3.6l.3.1.3.4.2.2.3.3.1.1.2.3.1.2.1.2v.1c.1 1.3 1 2 1.9 2.7h.3l.3.4.2.3.2.2.2.3-.1-.2c.1-1-.8-1.6-1.2-2.4 1.5.1 2.1 1.4 2.8 2.4l9.9 14.2c4.8 6.9 9.9 13.6 14.2 20.9 1.2 2 3.5 3.1 5.2 4.5 1.4 1.1 2.4 2.6 3.9 3.6a53 53 0 0112.6 11c6.2 7.1 13.2 13.4 19.6 20.3 7 7.5 13.9 15.2 18.4 24.6 2 4.2 3.4 8.5 4.4 13 .1.4 0 .9.5 1.3.5-.8.1-1.5 0-2.2a58.5 58.5 0 00-10.5-22.6c-6.3-8.7-14-16.1-21.5-23.7-3.6-3.6-7.1-7.3-10.4-11.2-1.2-1.4-2.7-2.5-3.6-4.1 2.3 1.7 4.1 3.8 6 5.9 7 7.8 14.7 15 22 22.6a95.5 95.5 0 0116.4 22.5l-1.1-2.5-1.4-2.6a98.4 98.4 0 00-15.4-19.8c-4.5-4.8-9.4-9.2-13.7-14.1l-8-9.1a67.6 67.6 0 00-8.3-7.7c-.5-.4-1.1-.8-1.6-2 3.1 2.3 5.7 4.3 8.1 6.7 8.6 8.5 16.6 17.7 25.4 26.1.8.8 1.6 1.4 2.9 2.1a5 5 0 00-1.7-2.2 368 368 0 01-18.2-19.2c-2.2-2.5-4.8-4.7-6.8-7.4.9.4 1.6 1.1 2.3 1.8 3.3 3.1 6.4 6.4 9.4 9.7l4.3 4.5c-5.1-5.9-9.9-12-16-16.9-.6-.5-1.1-1.1-1.9-1l-.9-1.1c-.3-.4-1.3-.6-.7-1.3.5-.5 1 .2 1.5.6 3.1 2.3 6 4.9 9.1 7.3 3.1 2.3 5.9 4.9 8.5 7.6l12.3 12.8c5.2 5.4 10.6 10.6 15.7 16.1 2.4 2.6 4.6 5.4 6.8 8.2l2 2.7c.2-1.8-.5-2.8-1.3-3.8-5.6-7.4-12.2-13.9-18.6-20.5-4.4-4.4-8.7-8.9-12.7-13.6-1.2-1.4-2.8-2.6-4.1-4.6 2.6 1.6 3.8 4 6.1 5.5.3-.8-.5-1.1-.5-2.1 4.2 4.5 8 8.9 12.6 12.5 4.6 3.6 10 6 15.2 9.8-.5-2.7-1.6-4.8-2-7.1 2.8 4.3 3.3 9.9 8.4 12.8-1.2-4-1.8-8.2-4.1-12.2 1.2.2 1.3.9 1.5 1.4 2 4.1 3.5 8.4 4.6 12.8.3 1 .5 2 1.9 2.9-1.7-8-4.4-15.2-8.2-22a65.6 65.6 0 018.2 17.7l-1.8-6-2.4-6-2.6-5.6c1.6 2.2 2.8 4.7 4 7.2a72.6 72.6 0 015.1 17.2 7.5 7.5 0 002.4 4.1 73 73 0 00-7.6-25.3c1.3.4 1.4 1.2 1.7 1.8 4 7.8 6.4 16.1 7.5 24.7.3 2.4 1.6 4.3 2.9 6.2a72.6 72.6 0 00-17.5-44.4c1-.4 1.5 0 2 .6 2.1 2.3 3.9 4.9 5.8 7.4A68.4 68.4 0 01509 205l.5 6.1c.1.8.3 1.6.9 2.3-1-17.7-3.8-34.8-15.2-49.2 1.4.7 2.2 2 3.2 3.1 2.7 2.6 5.1 5.3 7.1 8.6a80 80 0 019.9 38.2c.4 5.9.3 11.8.3 17.7 0 1.1.4 1.7 1.1 2.4l17.2 14.7 8 7.2a64 64 0 00-12.2-17.3c1.2-.4 1.8.3 2.3.8l6.1 6.5c.3.4.4 1.2 1.2.3.4-.5.8.4 1.1.8 3.2 4.7 5.7 9.7 7.4 15.1.3.8.4 1.7 1.2 2.5a60.4 60.4 0 00-18.3-29.5l.3-.4a36 36 0 012 1.8l2.5 2.3c-.4-1.5-1.6-1.9-2-3 1.8 1.1 3.2 2.6 4.7 4.1a61.8 61.8 0 0114.5 25.1c.2.5.7.8 1.1.6.7-.2.3-.8.2-1.2a55.1 55.1 0 00-5.5-12.4c-2.8-4.8-6-9.3-10.1-13-1-.9-.5-2.1-1.3-3a70 70 0 00-4.8-4.6c-.4-.4-1-.6-1.2-1.5a66.4 66.4 0 0124.2 33.8l.4 1c.1.2.3.4.5.4.3 0 .5-.3.5-.6a78.7 78.7 0 00-4.9-12.7 54.5 54.5 0 00-14.7-18.4c-2.3-1.8-3.7-4.4-6.1-6 1.7.6 2.9 1.9 4.7 3.1-1-1.4-2.7-1.8-2.6-3.5 2.4-.1 11.5 8 17.6 15.6 5 6.3 8.4 13.4 10.8 21.4.7-1.1.3-1.8.1-2.4-3.2-11-9.6-20-17.9-27.8-2.6-2.5-5.5-4.7-8-7.1 14.2 10 26.1 21.9 30.5 39.5 0-3.9-.6-7.7-1.1-11.5a26 26 0 011.6 8.2 87 87 0 007.9 31.5c-.9-4.5-1.1-9-1.3-13.6-.1-1.5-1-2.8-1.6-4.2-.3-.6-.5-1.3-.4-2.1l1.9 3.9.5-6c.4 1.8.3 3.6.3 5.3-.1 2.1.4 3.9 1.2 5.7a77 77 0 013.4 11.3c-.5-4.4-1.2-8.7-2.4-12.9 3.5 8 3 16.9 5.3 25.2.9-1.6 0-3.1-.3-4.8 1.4 1.5 1.3 3.2 1.7 5.2 1.8-5.2 2.4-10 1.1-15.2a9.5 9.5 0 011.3 5.3c-.1 3.1-.3 6.2-1.3 9.1-.5 1.5-.1 1.7 1.3 1.5l14.7-1.5c1.4-.1 2.9-.3 4.3.1.8.2 1.8.4 2 1.5.1 1.1-.9 1.4-1.6 1.8-3.3 1.5-6.9 1.9-10.5 2.4-2.6.4-5.3.6-8 .8-1.7.1-2.8.9-3.6 2.3a40.5 40.5 0 00-3.6 8.9 74 74 0 01-10.8 21.8 3.5 3.5 0 00-.5 3.4c.6 1.6 1.5 3.1 2.1 4.7-4-4.9-4.2-10.6-3.7-16.6a12.6 12.6 0 00-2.2 6.5c0 .2.4.6-.3.5-1-.2-.8.7-.9 1.1-2.6 7.1-5.1 14.2-8.7 20.9-1.5 2.8-2.8 5.6-5.1 7.8.1-.3.2-.7.4-.9 4.6-6.5 7.4-13.9 10.2-21.2.2-.6.6-1.2.4-2.3-1 2.4-1.9 4.5-2.6 6.6a76 76 0 01-12.6 21.7c-.7.9-1.7 1.5-2.2 2.6-3 2.7-6.2 5-10.1 6.9.3-.9.9-1 1.3-1.3 3.1-2.1 6.1-4.4 8.7-7 4.2-4.2 6.8-9.4 9.3-14.7 3.2-6.9 5.6-14.1 7.9-21.4l-2.2 5.9c-2.8 7.6-5.6 15.3-9.9 22.2a50 50 0 01-17.2 16.1c-.4.2-.8.4-1.3.4 2.8-2.2 5.9-3.9 8.6-6.9-2.1.7-2.9 2.9-4.9 2.5l1.2-1.2a58.2 58.2 0 0016.2-25.6c-1.1 0-1.5.6-1.8 1.4-1.7 4-3.3 8.1-5.4 11.9-3 5.6-7 10.4-11.9 14.4a54 54 0 01-6.4 3.7c.3-.9.9-1 1.3-1.3 2.9-1.7 5.5-3.7 7.9-6 .5-.5 1-1 1.2-1.7l.1-.3.7-.7.1-.1v-.2l.7-.7.1-.2v-.2c1.9-4.1 4.6-7.9 5.9-12.3a48.2 48.2 0 01-20.9 22.8c-.3-.5.1-.6.3-.7a43.7 43.7 0 0017.7-19.4 130 130 0 007.8-19.5c-3.3 2.2-3.1 6.1-5 8.8l1.8-5.5c-1.2.3-1.8 1-2.5 1.5a91.5 91.5 0 01-29.4 15.2l-3.8 1.1c-.8.2-1.6.5-2.2 1.3-3.2 4.4-7.7 7.4-11.9 10.6-2 1.5-4 2.7-6.6 3.4.4-1.4 1.4-2 2.3-2.6 5.2-3.2 9.8-7.2 13.8-12.3-3.1 1.1-4.6 3.8-7 5.1l-.5.1c.1 0 0 0 0 0zM275.1 166.2l.4-.3-.4.3zm-1.9 1.3l.4-.3.4-.3-.4.3-.4.3zm-6.1 28.3v.2l.5.1.3-.6c.1-.2.3-.4.1-.6l-.4.2-.3.6-.2.1zm-90.9.6l-.4.3.4-.3zm94.8-27.3l.4-.3.4-.3.4-.3v-.3h-.3l-.4.3h-.7c-.4.7-1.3 1-1.2 2h.3l.4-.3.4-.3.3-.5zm-96.3 28.2zm.7.4zm142.4 50.9l-.9-.1c-.9.3-1.7.6-2.4 1.2v.3h-.7c-.7.2-1.5.4-2.2 1.1.9.6 1.6 1.5 2.7 1 1.5-.7 3.2-1.1 4.5-2.2v-.3l.4-.7.7-.3.7-.3.7-.3.7-.3.7-.3.7-.3.6-.2.3-.2.4-.1.3-.2.4-.1.3-.2h.4c.6.1 1.1 0 1.5-.6l.3-.2.4-.1.3-.2.6-.2.6-.2.1-.5.1-.3c.4-.1.3-.2 0-.4-1.2.1-2.3.4-3.1 1.3v.1l-.2.1-.6.2-.2.1-.6.2-.1.1-.6.2-.1.1-.6.2-.1.1c-.7.1-1.3.4-1.8.9l-.7.3-.7.3-.7.3-.7.3-.7.3-.7.1zm12.9 12.9h.7c1.2-.3 2.3-.7 3.3-1.5v-.2-.2-.4l.7-.3.7-.3-.7.3-.7.3-.7.3-.7-.1-.7-.1a10 10 0 00-3 1.2c-.6.3-.5.5.1.7.3.3.5.7 1 .4v-.1zm-132.1-23.9h.7c.2-.1.3-.2.1-.4-.3-.3-.6-.1-.9 0-.2.2-.2.4.1.4zm68.1-40.2c.1-.2.3-.4.1-.6l-.4.2-.4.7-.4.7-.4.7-.4.7-.2.1-.7-.1-4.6 7.8-.1 1c.1.3.1.8.6.3l.4-.7.4-.7.4-.7.4-.7.4-.7.4-.7.4-.7.4-.7.4-.7.4-.7.4-.7.4-.7.4-.7.4-.7.4-.7.4-.7c.3.2.4-.1.5-.3zM244 78.1l.6.1c.2-.3.2-.6-.1-.7-.5-.1-.5.3-.5.6zm-.9-1.5l.5.1c.2-.3.2-.6-.1-.7-.5-.1-.5.3-.4.6zm72.7 167.7c-.7.1-1 .6-1.2 1.5l3-1.3-.1-.2-.8.1-.9-.1zm-171.2-59.8c-3.2 1.9-6.1 4.4-9.4 6.1l-8.1 4.4a145.3 145.3 0 0031.3-19.2c9.8-7.5 19.4-15.2 29.1-22.8a15 15 0 00-3 1.8l-26.9 21c-2.2 1.7-4.3 3.6-6.9 4.7l1.3-1.2 11.2-8.5 7.3-5.8a582.3 582.3 0 00-25.9 19.5zm76.8 29.9c-1.4 2.3-3.6 3.6-5.5 5.2-4.1 3.4-8.5 6.4-13 9.3a78 78 0 0018.2-13.2c.3-.3 1.6-.6.4-1.4.1-.8-.2-.8-.9-.6-1.8.6-3.1 1.8-4.5 3-11.4 9.4-23.3 17.7-39 19.2 3.2.3 6-.3 8.7-1a70.5 70.5 0 0024.7-12.2c3.8-2.6 7.3-5.5 10.9-8.3zm303.9 117.1c-1.4 2-2.3 4.3-3.3 6.7 3.3-.6 11.5-6.7 13.3-9.9-2.1 1.7-3.8 3.5-6.2 4.5 1.2-1.2 2.8-2 3.7-3.5-1.4 1-2.6 2.2-4.5 2.8.3-.9.8-1.1 1.2-1.4.4-.3.9-.5.6-1.3-.8.4-1.4.9-2.1 1.1-.8.4-1.5 1.5-2.7 1a34 34 0 0015.9-16.1c-.5-.2-.8 0-1 .1-3.1 2.1-6 4.3-8.6 7-2.4 2.8-4.8 5.5-6.3 9zm45.1 6.2c-1.2-2.8-.4-5.7-.5-8.9-4.1 5.7-3.9 11.7-3.1 17.8 4-5.2 6.9-11 9.3-17-.4.3-.6.7-.8 1-1.2 1.8-1.8 3.9-3.4 5.4l.5-1.4c2-3.2 3.5-6.7 5-10.1a46 46 0 002.9-8.1 35 35 0 00-8 8.3 9.5 9.5 0 00-1.6 3.9c-.8 3.2-.5 6.1-.3 9.1zM21.9 149.6a52 52 0 0015.7 1.7l10.4-5.2v-.5c-7.8.8-15.6 2-23.4 2.8 5-1 9.9-1.9 14.9-2.5 7.2-.8 14.4-2 21.1-4.8a75.8 75.8 0 0119.1-5c13.8-1.8 27.7-1.5 41.6-1.8 7.2-.2 14.4-.6 21.6-1.6-7.8.3-15.5.2-23.3.1 9.4-.5 18.9-.5 28.3-1.2-2.8-.6-5.6-1.3-8.5-1.6a177.6 177.6 0 00-56.4 2c-10.9 1.9-21.7 4.5-32.6 6.5a160 160 0 00-31.2 8.5c-.6.3-1.4.4-1.9 1.1 1.9 1 3.7.7 5.6.3-.2.7-.9.4-1 1.2zm439.3 70.3c2-8.1 2.2-16.2.3-24.3a59.7 59.7 0 00-16.4-28.3l-6.2-6.5c6.3 13.2 8.6 27.2 9.5 41.6.2 3.9 1.2 7.8 1.8 11.6h.3l-.2-3.8c1.2 8.4.4 16.8.4 25.2.8-8.3 1.1-16.6 1-25 1.1 6.5.4 13 .5 19.5 1.9-5.8 3.9-11.4 5.2-17.6.2 1 0 1.6-.1 2.3-.9 4.5-2.3 8.9-3.8 13.2-1.4 4.1-2.5 8.2-.9 12.7-.1-7.9 2.5-15 4.8-22.3 1.4-4.5 3.1-9 3.3-13.8l.1-2.1.2-2c.7 5.7-.4 11.2-2 16.6.5-.1.6-.8 1.1-.5.3 1.2-1.1 2.8 1.1 3.5zm-308.1-83.2l-5.9.5-42.5 3.1c-13.5 1-26.9 2.2-40.4 3.3-6.6.5-12.8 1.8-18.6 5.1-1.6.9-3.4 1.7-5.1 2.5l.1.4c18.5-1.1 36.9-2.8 55.3-4.7 19.3-1.9 38.4-5.2 57.1-10.2zm-133.9-2.1c10-3.2 20.2-5.2 30.4-6.8a297.5 297.5 0 0162.2-5c10.3.2 20.6 1.8 30.9 2.3l-1.7-.3a315.4 315.4 0 00-55.5-6.5c-10.2-.1-20.3.8-30.3 2.1a93 93 0 00-24.3 6.5 35.5 35.5 0 00-11.7 7.7zm393.1 149.1c11.7-.8 23.4-2.2 35.2-5-18.6-3.2-36.6-4.5-54 4.2a61.1 61.1 0 0131.8-7.3 70.8 70.8 0 00-42.3 10.3 127 127 0 0061.3-5.4c-10.6 2-21.2 3.5-32 3.2zm-127-208.1l4.9 5a75.6 75.6 0 0115.3 28.1c4.5 13.4 6.8 27.2 8.8 41.1.4 2.8.4 5.8 1.8 8.6l.6-3.4.2-1.6c.7-8.7.5-17.4-1.2-26-4.1-20.8-12.8-38.9-30.4-51.8zM155.9 135a25.8 25.8 0 00-11.7-.9c-15.1 1.9-30.3 1.5-45.5 1.9a94.2 94.2 0 00-39.8 7.4c32.2-4 64.6-5.3 97-8.4zm-91.1 57.5c0 .4.3.5.6.6 2.4 1.4 4.9 2.4 7.7 2.7 3.2.4 6.3.9 9.5.7 8.4-.6 16.1-3.3 23.7-6.6 15.4-6.6 29.6-15.6 44.2-23.7 1-.6 2.2-1.2 2.5-2.8l-1 .1c-1.9 1.6-4.3 2.2-6.5 3.4-11.6 6-22.9 12.6-34.8 18.1a72.8 72.8 0 01-43.7 7.6c-.6 0-1.4-.5-2.2-.1zm-.7-98.1a242 242 0 0176.8 14.2c-7.1-3.3-14.3-6.4-21.7-9.1a115 115 0 00-42.2-8c-4.4.1-8.7 1.5-12.9 2.9zm447.6 268.8a176.3 176.3 0 0029.1-24.6 76.3 76.3 0 01-19.5 7.2c-2.6.6-4 2-4.7 4.5a61.6 61.6 0 01-4.4 11c-.2.5-.7 1-.5 1.9zM42.3 152.6c37.3.3 74.2-2.8 110.1-14.1-36.2 9.1-73.2 11.1-110.1 14.1zm122.3-34.8c-1.3-1.2-2.6-2.4-4.2-3.3-15.7-8.9-32-16.4-49.3-21.8-9.6-3-19.3-2.9-29.1-2.1 13.1.5 25.8 3.4 38 7.9 10.3 3.8 20.9 7.1 30.4 12.8 3.7 2.2 7.7 4.1 11.6 6.1a155.6 155.6 0 00-25.1-13.9c-4.2-2-8.6-3.6-12.9-5.5 14.4 4.8 27.7 12 40.6 19.8zm-59.5 9.9c-14.8-.8-76.2 11.8-80.6 16.4a693 693 0 0180.6-16.4zm259.4 161.8c-.7-.2-1 .1-1.3.3-4.4 2.1-8.8 4.4-13.3 6.4a164 164 0 01-41.6 13.8 84 84 0 01-27.4.2c-3.9-.6-7.7-1.7-11.5-2.5a64 64 0 0028 4.9c18.1-1.1 34.8-7.1 51.1-14.6 4.6-2.1 9-4.6 13.5-7.1l2.5-1.4zm30.8-110.9c-.6 2.5-2.2 4.6-3 7.1.5.3.6-.6 1.1-.2l-1 2.1c1.1-1.8 2.9-3.2 3.8-5 2.9-6 5.3-12.2 7.6-18.5 1.4-3.9-.6-6.9-1.6-10.1-.4 1.6-.5 3.1-.8 4.7-1.2 6.4-4.2 12.1-7.2 17.8-.7 1.3-.2 2.9-1.1 4.2.4 0 .6 0 .6-.2.7-.6 1.1-1.3 1.6-1.9zm154.7 157c-8.6 10.3-19 18.6-29.8 26.6.6.2.9-.2 1.3-.3a94 94 0 0021.9-14.6c3.8-3.2 4.8-7.6 6.6-11.7zm-5-71.4c-.5-2.4-1.4-4.6-3.1-6.4-6.1-6.5-13-12.1-19.7-17.9l-6.7-5.8c-.5 2.1.4 3.3 1.8 4.5 9.5 8.2 19.6 15.8 27.7 25.6zm-386.7-34.7c4.2.1 8.8-1.4 13.1-3.4a100.6 100.6 0 0045.7-40.6c1.5-2.5 2.8-5.1 4.2-7.7a102.6 102.6 0 01-63 51.7zm188.2 58.6c-.8-.4-1.4.1-2 .4-9.1 4.3-18.4 8.4-28 11.5a108 108 0 01-34.7 5.8c-2.4 0-4.8-.3-7.2-.1 26.2 3.1 49.5-5.6 71.9-17.6zm142.9-96c.1-.5.2-.7.1-.8-.9-7.7-1.8-9-8.4-13l-1.5-.9c-3.5-2.1-7-4.1-10.1-6.8l-.8-.6c6.8 7.4 14.1 14.2 20.7 22.1zm-166 79.8c-.7-.8-1.4-.2-2.1 0a175 175 0 01-36.9 9.9c-1.1.1-1.8.8-2.8 1.5 7.6 1 36.9-7.1 41.8-11.4zm187.5 94c3.8-1.1 6.8-2.5 9.6-4.6 7.2-5.5 14.2-11 20.7-17.4 3.1-3 6-6.2 8.5-9.8-5 6-10.5 11.4-16.6 16.1 1.3-1.9 3.2-3.3 4.8-4.9a113.2 113.2 0 009.5-10.1l4.1-5.3-.4-.3a156.9 156.9 0 01-40.2 36.3zm-69.4-79.8c-17.3 4.1-34.9 8.1-53.2 5.5l5.3.9c6.5.6 13 1 19.5.5a64 64 0 0028.4-6.9zM257 300.5l.8.3c10.9 4 22.1 5 33.6 3.9 14.2-1.4 27.6-5.8 40.6-11.3.5-.2 1.1-.3 1.1-1-.6-.3-1.1.2-1.6.4-5.4 2.2-10.8 4.3-16.3 6.1a103.5 103.5 0 01-35.3 5.5 99 99 0 01-22.9-3.9zm163.2-156.6l.6 2c1.2 4 2.7 8 3.1 12.1.4 4.2 4.1 5.1 6.2 7.5a54.5 54.5 0 00-9.9-21.6zM162 141.3c-3 1.2-6 2.3-8.9 3.6-14.4 6.6-28.8 13.2-43.9 18.2-5.9 1.9-11.6 4.3-18 4.5-.9 0-1.9.4-2.8.7l.2.7c26.2-4.8 49.6-16.6 73.4-27.7zm302 47.4c1.5 3.1 3 6.1 4.1 9.4a49 49 0 012 27.6c-1.2 5.4-3.1 10.6-4.6 15.9a51.6 51.6 0 00-2.3 11.7c.5-1.8.7-3.7 1.3-5.5 2.2-7.1 3.8-14.4 6.9-21.2 1-2.2 1.7-5 .4-7.6-.4-.7-.3-1.7.1-2 1.5-.9.6-2.2.6-3.3 0-1.6-.3-3.2-.5-4.8-1.3-7.4-4-14-8-20.2zm-159.5 95.8c-11.6 3.4-23.6 3.3-35.8 5.3 11 2 24.9-.1 35.8-5.3zM102.2 77.2a176.5 176.5 0 0139.1 18.2c6.1 3.8 11.7 8.1 17.7 11.9-17.6-15-43.5-28.7-56.8-30.1zm279.9 276.7c20.7 2.6 36.7-6.8 51-20.3-.3-.1-.5 0-.6.1-3.7 3-7.5 5.9-11.5 8.5-8 5.3-16.5 9.6-26 11.3-4.3.8-8.6.2-12.9.4zM176.8 236.8c6.5 1 12.8-.3 18.8-2.6a92.7 92.7 0 0029.3-19.5l.2-.5c-1 .1-1.8.6-2.5 1.2-3.1 2.7-6.2 5.5-9.6 7.8-9.2 6.3-18.3 12.6-30 13.1-2.1.1-4.2.6-6.2.5zm119.1 73.6c9.2 1.2 42.9-7.9 49.3-13-2.8-.5-5.3 1.1-8.1 2.2l-2.4 1c-12.5 5-25.3 8.7-38.8 9.8zm101.5-193.7c-.2.4 0 .6.2.8a74 74 0 0111.7 33.4c.1.5.2.9.5 1.3.4.3.7 1 1.2.8.6-.2.4-.9.3-1.4a79.3 79.3 0 00-11.9-32.2c-.5-.9-.7-2.3-2-2.7zM434 337.8c-1.1.5-2.3 1-3.3 1.7l-6.6 4.6a66 66 0 01-25.1 10.8c-3.9.7-7.8.8-11.8.7 8.2.9 16-.3 23.7-3.3a76.3 76.3 0 0023.1-14.5zm-201.5-94.7c-10.2 7.6-22.4 8.3-34.4 10 13 1.8 24.3-2 34.4-10zm274.9-18.6a88 88 0 00-.3-13.6c-.2-1.9-1.5-3.4-2.5-5 0 2.5.1 4.9.3 7.3.2 3.9.3 7.7.2 11.6-.1 1.7.5 3.1 2.1 3.9 1.3-2.4-1-3.7-1.8-5.5 1 .2 1.1 1.1 2 1.3zm-341.3 8.9a41 41 0 0024.6-5.2 63.7 63.7 0 0020.3-15.4c-3.7 3.2-7.2 6.1-11 8.7-10.2 7-21 12.2-33.9 11.9zm-6.9-1.9a28 28 0 0014.9-1.9 79.7 79.7 0 0026.7-16.3c-12.3 9.5-25.4 17.4-41.6 18.2zM471.9 350c2-.3 3.5-.6 5-.7a3 3 0 002.7-1.8l3.2-6.2 2.9-5.8a170 170 0 01-13.8 14.5zM217.3 212.7l-.5-.8a90.2 90.2 0 01-38.2 22.6c15.5-2.7 27.5-11.6 38.7-21.8zm18.9 8.3c-.6 0-.9.5-1.2.9-1.8 2.1-3.6 4.3-5.5 6.3a64.8 64.8 0 01-25 17.2c-4.4 1.6-8.9 1.8-13.4 2.2a52 52 0 01-10.4-.4 44.5 44.5 0 0024.5-1.5 70.3 70.3 0 0031-24.7zm250.9 126.7c1.5-.2 2.7.1 3.5-1.1 4.4-6.6 7.6-13.7 11.4-20.6a73.4 73.4 0 00-9.1 13.6c-.4.8-.8 1.7-1.5 2.1-2.3 1.3-2.8 3.9-4.3 6zm-423-156.9c-.2-.7-1.1-.6-1.2-1.2l.1-.1 1.1.5c3.5 1.6 7.2 2.6 11.1 2.3a84.3 84.3 0 0027.5-7.9c-7.1 2.6-14.3 5.1-21.9 6.2-7.8 1.1-15.1-1-22.5-2.6 1.9 1.1 3.7 2.3 5.8 2.8zM183 238l.2.4a58.5 58.5 0 0039.5-18.3l-.5-.1-1.3 1.1c-10.1 7.5-20.1 15.2-33.4 16.2-1.6.1-3.1.5-4.5.7zm53-.7c1.3.1 1.7-.7 2.3-1.2 7.3-6.6 13.3-14.3 18.7-22.4l.7-1.2c.2-.4.4-.8-.1-1.1-.4-.2-.6.1-.8.4l-.8 1.2c-4.2 6.4-8.7 12.6-14 18.2l-6 6.1zm279.2 1c10.5 9.6 22.1 18.2 30.4 30-7.5-12.6-19.5-20.8-30.4-30zm-260 59.5c26 7.7 50 .7 73.6-9.7-.8.1-1.6.4-2.4.7-13 5.6-26.3 10-40.4 11.4-6.5.7-12.9.8-19.4-.2-3.8-.6-7.6-1.5-11.4-2.2zm-87.8-190.9c-1.7-3.6-23.5-18.2-30.4-20.6 10.8 5.9 20.4 13.5 30.4 20.6zm124.1 178.6a130 130 0 0036.7-11.2c-12 4.6-24.4 7.7-36.7 11.2zm204.6-84.6c-.8-5.8-.8-11.8-6.4-15.8 1.4 5.6 1.6 11.6 6.4 15.8zM81 109.2c16.5.7 32.5 5.1 49.4 6.9-16.6-4-32.9-6.4-49.4-6.9zm210.8 166c8.6-.8 16.3-3.7 24-6.7-.8-1.1-1.6-1.1-2.6-.7a85.6 85.6 0 01-19.1 5.7c-.8.2-1.6.6-2.3 1.7zM467 224.8c3.7-11.3 0-28.4-4.7-35.4a52.5 52.5 0 013.1 36.7c.8-.9.8-.9 1-2.3.6.1.2.8.6 1zm-29 118.6c-12.2 8.6-24.7 15.3-39.9 14.7 10.8 2.2 36.2-7 39.9-14.7zm75.4 4.4c-1 .7-1.1 1.5-1.3 2.2a67.5 67.5 0 01-7.7 16.3c-.3.5-1.3 1.2-.7 1.7.7.5 1.5-.3 2-1l1.1-1.6c2.9-4.6 5.2-9.4 6.8-14.6.2-.5.6-1.1.3-1.9l-.9 2.3-.2-.1.6-3.3zm-43-168.5c5.3 6.1 10.5 12.3 14.3 19.5a63.3 63.3 0 016.8 22.8c-.4-17.4-9.5-30.5-21.1-42.3zm-238.3 6.3a123.2 123.2 0 01-43 41.6c18-10.1 32.8-23.5 43-41.6zM181.5 172c5.5-8 11.3-15.6 17.9-22.8-9.3 5.1-13.1 14.4-17.9 22.8zm266.3 157.9l-9.9 7.9a108.2 108.2 0 01-23.5 14.8 66.1 66.1 0 01-13.1 4c4.6-.3 9.1-1.4 13.2-3.3 12.6-5.7 23-14.5 33.3-23.4zM238.8 82l-3.1-5.4a70.7 70.7 0 00-15.6-19.7c-2-1.7-4.3-2.9-6.1-4.9-1.8-1.9-4.3-2.7-6.6-3.8-.3-.1-.7-.3-1 .6a55.6 55.6 0 0118.9 13.7c5.2 6 9.3 12.8 13.5 19.5zm-.5 155.2c14.7-12.7 23.9-29.4 33.4-45.9-9.9 16.2-19.1 32.9-33.4 45.9zm-94.8-72.8c-8.4 4.3-16.4 9.2-24.8 13.5-8.4 4.2-16.8 8.3-25.6 11.4 9.2-2.1 37.5-16.1 50.4-24.9zm12.8-56.6a158.9 158.9 0 00-50-28.3 183.3 183.3 0 0150 28.3zm79.5 122.3c12-12.4 20.1-27.5 28.8-42.2-8.9 14.6-17.4 29.4-28.8 42.2zM138.6 150c-13.7 5.4-27.2 11.6-41.3 15.9 14.3-4 28-9.6 41.3-15.9zm194.7 126.7c-.9-.9-1.7-.8-2.6-.3l-5.3 2.6-13.4 6c7.4-2 14.6-4.4 21.3-8.3zm-144-57.6c12.9-7.7 32.1-28.1 35-37.3a123.5 123.5 0 01-35 37.3zM373.1 82.5c6.8 9.2 12.7 19 20 27.8-6.6-9.3-12.1-19.4-20-27.8zm-240 108.1c15.2-9 28.4-20.7 42.7-30.9-7.3 4.8-14.3 10.2-21.2 15.5-7 5.4-14.1 10.6-21.5 15.4zm34.9 33.8c8.5-2.7 25.3-14.3 26.7-18.6-8.4 7.2-16.8 14-26.7 18.6zm371.9 44.8c-2.5-5.8-20.7-24.4-24.8-25.3 8.8 7.9 18 15.4 24.8 25.3zM250.5 56.3c8.7 8.2 14 18.5 18.3 29.4a54 54 0 00-18.3-29.4zm19.3 26c.8-4.3-8.9-20.3-14.4-22.6a65.6 65.6 0 0114.4 22.6zm-98.7 149.9a74.6 74.6 0 0037.1-20 90.6 90.6 0 01-37.1 20zm235.4 59h-5.2c-7-.3-14-1.1-20.8-2.9-1.2-.3-2.3-.4-3.3.8a100 100 0 0029.3 2.1zm96.7-72.7c.1-5-.2-10-.6-15-.1-1.7-.8-3-2.3-4.6 1.4 6.7.3 13.4 2.9 19.6zM330 292.1a185.6 185.6 0 01-36.4 10.8c12.7-1.6 24.8-5.4 36.4-10.8zm-35-3.2c10.3-1.3 19.3-6.1 28.6-10.3-9.6 3.4-18.8 7.8-28.6 10.3zm225.5-12.2c1.6 6 7.5 18.7 9.7 21-2.6-7.4-5.9-14.3-9.7-21zm-268.8.2c1.3.6 2.2 1.1 3.4.6a58 58 0 0010.9-6c.3-.2 1-.4.7-1-.3-.5-.9-.4-1.4-.2a52.5 52.5 0 01-13.6 6.6zm-56.3-31.1a52.6 52.6 0 0029.2-15.5c-8.7 7.1-18 13-29.2 15.5zm52.7 29.1c.8.8 1.4.9 2.1.6 4.5-1.5 8.7-3.6 12.6-6.2.3-.2.7-.4.5-.8-.1-.4-.5-.4-.9-.4l-1.3.4c-4 2.6-8.2 4.9-13 6.4zM129.6 117.3c9.1 2.9 18.5 4.2 27.7 6.5-9-3.3-18.3-5.2-27.7-6.5zm217.2 175.6c-10.4 3.7-20.4 8.6-31 11.6 10.8-2.6 21-6.7 31-11.6zm-86.5-26.1c-1-.9-1.8-.7-2.7-.1a66 66 0 01-10.9 5.6c-.4.2-1.3.1-.9.9.3.7 1 .4 1.5.2a55.8 55.8 0 0013-6.6zm157.8 62.5c-4.7 3.6-9.2 6.9-14 9.7a78.7 78.7 0 01-15.3 7.1c7.1-1.1 27.5-12.7 29.3-16.8zm-22.6-35.8c15.4 2.3 30 .4 33.4-1.7a117.3 117.3 0 01-33.4 1.7zM230.8 47.9A97.7 97.7 0 01255.1 76a79.3 79.3 0 00-24.3-28.1zm11.7 178.3c9.3-10.9 16.2-23.3 23.3-35.7-7.5 12-14.4 24.5-23.3 35.7zm271-1.6c1-10.4-2.5-35.2-5.5-39.1a113 113 0 015 32.5c0 2.2-.5 4.4.5 6.6zm45.5 98.5a53.4 53.4 0 00-10.7 19c4.4-5.8 6.1-13.2 10.7-19zm-131.9-11.8c-11 8.5-21.5 17.8-33.5 25 12.4-6.7 22.7-16.2 33.5-25zm-273-156.6c-12.7 7.7-25.3 15.7-38.5 22.6a346 346 0 0038.5-22.6zm116.4 125.9c4.8 1.4 7.4-2.2 10.5-4.5-1.3-.1-2.5-.8-3.7 0a66.7 66.7 0 01-6.8 4.5zm257.4-13.9c0-2-.9-3.3-2-4.5l-3-3.4c-2.4-2.5-4.8-5-7.7-6.9 4.3 4.9 8.9 9.4 12.7 14.8zm-240.3 12.4c6.7-1.6 13-3.3 19.2-5.5-4.5 1.1-9 2.2-13.6 2.5a7 7 0 00-5.6 3zm288.5 10c-1.3 5.5-.1 10 2.6 14.2-.4-4.6-1.2-9.3-2.6-14.2zm-345.6-7.8c1.7 1.2 3.5 1.8 5.5 1.9 3.2.2 6.5.1 9.7 0 .5 0 1.3.1 1.3-.5 0-.7-.7-1.1-1.4-1l-4.3.4c-2.1.1-4.3.6-6.4-.1a9.5 9.5 0 00-4.4-.7zM153 108.4c-8.7-4.8-17.5-9.6-27.2-12.3 9.2 3.9 18.4 7.8 27.2 12.3zm-4.4 44.9c5.4-1.6 23-10.6 25.9-13.2-8.7 4.5-17.2 8.9-25.9 13.2zm85.3 66.5c-6.4 4.6-11.4 10.7-17.5 15.6a88.5 88.5 0 0017.5-15.6zm281.5 20.6c7.5 6.9 15.6 12.9 22.9 20.7a143.8 143.8 0 00-22.9-20.7zm-46.6-50.6a61 61 0 016.5 16.4c1.3 5.8 1.8 11.6 1.3 17.5a49.5 49.5 0 00-7.8-33.9zm-54.8-34c.6-5.6-4.2-22.5-7.2-25.8 3.7 8.3 5.7 17 7.2 25.8zm101.5 98.1c0 1.4 10 12.6 11.3 12.7a71.4 71.4 0 00-11.3-12.7zM575 299c-1.9-6.5-4.7-12.8-6.6-19.4 1 6.8 3 13.3 6.6 19.4zm-311.7-67c7.5-9.5 13.3-20.1 19.4-30.4-6.5 10.1-12.2 20.7-19.4 30.4zm-67.5-16.3c9.4-7.2 18-15.2 24.6-25.1a131.1 131.1 0 01-24.6 25.1zm320 42.8c.8.9.4 2.2 1.2 3.1l5.1 6.6c.5.7 1.1 1.1 2 .8-2-4.2-5.1-7.3-8.3-10.5zm-92 36.1c-9 1.4-18 1.1-27 .1 9 1.6 18 2.1 27-.1zm-196.6-58.3a44 44 0 0012-12.3c-4.2 3.9-7.9 8.3-12 12.3zm247.9-12l-1 4.4c-1.4 6.6-4.1 12.9-5.7 19.5-.9 3.6-1.5 7.3-.9 11.1-.2-3.4.2-6.7 1-10 1.3-5.7 3.5-11.1 5.1-16.6.7-2.8 1.4-5.6 1.5-8.4zm-42.3-40.5a61.4 61.4 0 00-7.6-18.8c-.4.4-.4.8-.3 1 3.1 5.8 5.8 11.7 7.9 17.8zM328.5 263c-1-1.4-2.2-1.1-3.2-.5l-3.4 1.7-4 1.9c.8.7 1.4 1 2.2.7l8.4-3.8zM269.2 70.8c3.2 4.9 5.6 10.3 8.2 15.5a28.6 28.6 0 00-8.2-15.5zm158.5 281.4c5.7-2.3 25.7-16.9 28.3-20.5-9.1 7.5-18 14.9-28.3 20.5zM162 152.6l25.6-14.4c-8.9 4.2-17.3 9.1-25.6 14.4zm193.9 101.7c-8.1 2.2-15.7 5.4-23.1 9 7.5-2.9 14.9-6 22.5-8.8l.6-.2zm-159.7-24.9a86 86 0 0024.7-18.6 118.6 118.6 0 01-24.7 18.6zM424.3 351a143.7 143.7 0 0027.8-19.9c-8.9 7.1-17.7 14.4-27.8 19.9zM223.2 177.1a113.7 113.7 0 01-18.1 25.9 85.2 85.2 0 0018.1-25.9zm312.2 168.5a302 302 0 01-25.3 19.8c8.9-5.9 17.5-12.4 25.3-19.8zM283 203.4c-5.8 9.3-11.2 18.8-17.5 27.8 6.7-8.7 12-18.3 17.5-27.8zM263.8 291c4.6 1.8 9 1.5 14 .5-2.5-.2-4.7.1-6.5-.6-2.6-.9-4.9-1-7.5.1zM120.1 173.8c9.5-4.9 18.7-10.6 27.7-16.4-9.2 5.5-18.3 11.2-27.7 16.4zm49.8 48a82.5 82.5 0 0022.9-15.9c-7.1 6-14.5 11.7-22.9 15.9zm67.8-170.1c6.3 5.7 11.6 12.4 16.4 19.4a69.7 69.7 0 00-16.4-19.4zm-31.5 158.6a136 136 0 01-22.3 16.1 93.2 93.2 0 0022.3-16.1zm-27.1 9.7a89.5 89.5 0 0020.4-15.8c-6.8 5.6-13.1 11.4-20.4 15.8zm320.2-12.6a76 76 0 00-1-10.7 5 5 0 00-1.9-3.3c1.4 4.9.9 9.7 2.9 14zM173 195.1c-6.5 4.7-13.7 8-21.2 10.7 7.9-2.1 15-5.6 21.2-10.7zm161.1 69.1c7.7-2.9 15.3-6.2 23-9.2-7.8 2.7-15.5 5.8-23 9.2zm174.4-74.4c.6 3.2 1.3 6.4 1.8 9.7.5 3.3.7 6.7 1.1 10 .3 3.2.1 6.4.8 9.6-.1-9.9-.9-19.7-3.7-29.3zm-305.1 41.9a79.2 79.2 0 0020.9-14.9c-3.3 2.6-6.5 5.5-9.9 7.9-3.6 2.5-7.3 4.8-11 7zm219.4 115.5c4.3-2 21.4-14.8 23.4-17.6-7.7 6.2-15.1 12.5-23.4 17.6zM336 304.4c6.6-3.1 14.1-4.1 20-8.9-6.6 3.1-13.3 6-20 8.9zM223.7 55.9l6.2 5.5c1.9 1.9 3.6 4.1 5.2 6.3l4.6 6.7c-4-7.3-8.9-13.9-16-18.5zm173.5 267.8a100 100 0 0025.5-13.8c-8.3 5.2-16.4 10.4-25.5 13.8zM268 72.1c3.3 5.8 5.8 11.8 8.2 18a46 46 0 00-8.2-18zm152.7 85.8a66.4 66.4 0 00-7.6-22.6c3.7 7.1 5.6 14.9 7.6 22.6zm4.6 171.8a170.4 170.4 0 01-21.4 14.4c7.8-3.7 14.7-8.9 21.4-14.4zM195.7 226.5a71.2 71.2 0 0019.5-15 115.2 115.2 0 01-19.5 15zm78 48.3c-1.1-.2-8.2 3.5-10.4 5.3 1.8.3 7.8-2.7 10.4-5.3zm-42.6-90.5c-3.5 5.9-7.6 11.5-11.8 17a71.8 71.8 0 0011.8-17zm-17.2 18.3a77.1 77.1 0 0014.6-21.2c-4.1 7.7-9 14.7-14.6 21.2zm28.8-127.5a48.4 48.4 0 00-11.5-14.4c4.5 4.3 7.8 9.5 11.5 14.4zm10.8 211.4c3 2.4 5.7.1 8.9-.1-3.2-2.2-6 0-8.9.1zm-38.7-112.8c-3.8 6.9-7.9 13.7-12.8 19.9a79.7 79.7 0 0012.8-19.9zm235.9 157.2c-6.7 5.1-13.1 10.4-20 15.2 7.1-4.4 13.6-9.8 20-15.2zm-55.2-144.5a92 92 0 009.3-23.6c-2.4 8.3-5.9 16-9.3 23.6zm-216 10.5c-5 4.2-10.7 7.1-16.5 10.1a50 50 0 0016.5-10.1zm71.9 11.1l11.6-19.3c-4.5 6-8 12.7-11.6 19.3zm-44 3.2c-5 3.4-9.4 7.5-14.5 10.9a81 81 0 0014.5-10.9zm67.8 81.5c4.8.4 9.6.3 14.3-1.4v-.4c-4.8.5-9.6 1.2-14.3 1.8zm237.2 74.6c4.9-.7 20.9-8.5 23.5-11.3-3.8 2.3-7.5 4.5-11.5 6.4-3.9 1.8-8 3.3-12 4.9zM417.1 219c.6-8.9 1.8-17.9.8-26.8.3 8.9-.4 17.9-.8 26.8zm-93.7 81.2c8.2-2.8 16.1-6.3 23.8-10.1-7.9 3.5-15.8 7-23.8 10.1zM142.6 166l-18.2 10.2c6.3-3 12.4-6.3 18.2-10.2zm127.2 106.6c-.5-.2-.8-.4-.9-.3-3.9 2.2-7.5 4.7-11.6 6.5 4.6-1 8.5-3.4 12.5-6.2zm283.4 84.8a100 100 0 01-11.1 20 59.6 59.6 0 0011.1-20zm-246.6-69.2c-5.1 1.1-10.4 1.8-15.3 3.6 5.2-.8 10.5-1.5 15.3-3.6zm128.3-130.8c2.2 5 4.1 10.2 6.2 15.2a53 53 0 00-6.2-15.2zm61.7 52c.6-3.9-2.1-6.4-3.8-9.4.2 3.5 2.9 6.1 3.8 9.4zM224.8 58.2c4.5 4 7.8 8.9 11.3 13.7a38.5 38.5 0 00-11.3-13.7zm23.7 226.4c.2-.4-.1-.5-.3-.5l-10.9-.1c2.2 1.1 4.5 2.1 7.2 1.7-1.3-.4-2.5 0-3.6-.8 2.6-.3 5.1.5 7.6-.3zm-89.7-157.7c-8.9-2.1-17.9-3.9-26.9-5.2 8.9 1.5 17.9 3.5 26.9 5.2zM289.6 285c-4.5.9-9.2.7-13.7 1.6 4.7.3 9.3.2 13.7-1.6zm180.6 65.3c5.5-4.8 10.3-10 14.6-15.8a181 181 0 01-14.6 15.8zm-112.1-87.7c6-2.1 11.9-4.3 18-6.1a88.8 88.8 0 00-18 6.1zm55.8 83a88 88 0 0015.6-10.7c-5.2 3.5-10.3 7.4-15.6 10.7zm-17.4-158.4a104 104 0 008.9-21.9c-2.5 7.7-5.6 14.9-8.9 21.9z" fill="url(#a)"/>
</svg>
