<svg xmlns="http://www.w3.org/2000/svg" viewBox="0 0 50 50">
  <ellipse cx="9" cy="24" rx="6" ry="19" fill="none" stroke="#000" stroke-width="2" stroke-linecap="round" stroke-linejoin="round" stroke-miterlimit="10"/>
  <path d="M17.4 4c-1.4 0-2.6.9-3.7 2.4l1 2.1C15.4 7 16.4 6 17.1 6c2.2.2 4.6 7.2 3.8 18.4-.8 11-4.2 17.7-6.3 17.6-.3 0-.6-.3-1-.6l-1 1.7a3.2 3.2 0 002 .9c4.5 0 7.6-10 8.3-19.5.7-9.7-1-20.1-5.6-20.4zM12.3 15.2c-.3-1.6-.6-2.9-1-4a50.5 50.5 0 00-.9 28l1.2-3.2a53.2 53.2 0 01.7-20.8z"/>
  <path d="M16.6 17.4c.3 2.1.4 4.4.4 6.6V23.9c.8-3.8 1.7-7 2.8-9.6L19 11c-1 2-1.8 4.1-2.5 6.5zM16 34.3c-.3 2-.8 3.8-1.4 5.3 0 .5.2 1 .3 1.3.3 0 1-.7 1.6-1.9a21.8 21.8 0 01-.4-4.7zM26 4.5c-1.4-.2-2.8.6-4.2 2.2l.9 2c1-1.4 2-2.2 2.8-2.2h.2c2.2.4 3.8 8 1.7 19.3-1 5.1-2.5 9.8-4.3 13.1-2 3.5-3.5 4.5-4.4 4.3a1 1 0 01-.3 0c-.5.5-1 .9-1.6 1.2a3.2 3.2 0 002.1.9c2 0 4-1.9 6-5.4 1.8-3.6 3.4-8.4 4.4-13.7 1.9-9.8 1.4-20.8-3.2-21.7z"/>
  <g>
    <path d="M37.6 9.4c-1.8-.8-4 .5-6.4 3l.2 3c2.1-2.8 4-4.2 5-4.2h.3c.5.3 1.2 1.7.5 5.6A51 51 0 0133 29.4a50.9 50.9 0 01-12 16.3l.6.1c1.6 0 3.6-1.3 5.9-3.9 2.5-2.9 5-7 7.3-11.7s3.7-9.3 4.4-13c.7-4.3.1-7-1.6-7.8zM24 23.3a62.2 62.2 0 01-.6 6.3 65.5 65.5 0 013.5-7.5c.3-1.7.4-3.2.4-4.6a62 62 0 00-3.2 5.8z"/>
  </g>
  <g>
    <path d="M32.6 27.7c.9-2 1.7-4 2.3-5.8a64 64 0 00-5 6 59 59 0 01-1.6 6.3 63 63 0 014.3-6.5zM46.8 15.4c-1.6-1.1-4-.3-6.6 1.6v.3l-.6 2.8c3-2.6 5.2-3.7 6-3.1 1.4 1-.6 8.2-7 17.1a1 1 0 001.7 1.2c5.7-8 9.8-17.5 6.5-20z"/>
  </g>
</svg>
